<?xml version="1.0" encoding="UTF-8" standalone="no"?>
<!-- Created with Inkscape (http://www.inkscape.org/) -->

<svg
   xmlns:dc="http://purl.org/dc/elements/1.1/"
   xmlns:cc="http://creativecommons.org/ns#"
   xmlns:rdf="http://www.w3.org/1999/02/22-rdf-syntax-ns#"
   xmlns:svg="http://www.w3.org/2000/svg"
   xmlns="http://www.w3.org/2000/svg"
   xmlns:sodipodi="http://sodipodi.sourceforge.net/DTD/sodipodi-0.dtd"
   xmlns:inkscape="http://www.inkscape.org/namespaces/inkscape"
   id="svg2985"
   version="1.1"
   inkscape:version="0.48.4 r9939"
   width="214"
   height="320"
   xml:space="preserve"
   sodipodi:docname="Evergreen_Crest_2014.svg"><metadata
     id="metadata2991"><rdf:RDF><cc:Work
         rdf:about=""><dc:format>image/svg+xml</dc:format><dc:type
           rdf:resource="http://purl.org/dc/dcmitype/StillImage" /><dc:title></dc:title></cc:Work></rdf:RDF></metadata><defs
     id="defs2989"><clipPath
       clipPathUnits="userSpaceOnUse"
       id="clipPath2999"><path
         d="m 0,595.276 841.89,0 L 841.89,0 0,0 0,595.276 z"
         id="path3001"
         inkscape:connector-curvature="0" /></clipPath><clipPath
       clipPathUnits="userSpaceOnUse"
       id="clipPath3007"><path
         d="m 338,181.525 167,0 0,230.571 -167,0 0,-230.571 z"
         id="path3009"
         inkscape:connector-curvature="0" /></clipPath><clipPath
       clipPathUnits="userSpaceOnUse"
       id="clipPath3035"><path
         d="m 339.06,195.355 164.87,0 0,169.171 -164.87,0 0,-169.171 z"
         id="path3037"
         inkscape:connector-curvature="0" /></clipPath><clipPath
       clipPathUnits="userSpaceOnUse"
       id="clipPath3107"><path
         d="m 393.305,329.42 56.933,0 0,62.96 -56.933,0 0,-62.96 z"
         id="path3109"
         inkscape:connector-curvature="0" /></clipPath></defs><sodipodi:namedview
     pagecolor="#ffffff"
     bordercolor="#666666"
     borderopacity="1"
     objecttolerance="10"
     gridtolerance="10"
     guidetolerance="10"
     inkscape:pageopacity="0"
     inkscape:pageshadow="2"
     inkscape:window-width="1366"
     inkscape:window-height="705"
     id="namedview2987"
     showgrid="false"
     inkscape:zoom="1.7085229"
     inkscape:cx="145.59877"
     inkscape:cy="197.24276"
     inkscape:window-x="-8"
     inkscape:window-y="-8"
     inkscape:window-maximized="1"
     inkscape:current-layer="g2993"
     height="744.09px" /><g
     id="g2993"
     inkscape:groupmode="layer"
     inkscape:label="EG_Badge_new"
     transform="matrix(1.25,0,0,-1.25,-420.3125,544.71876)"><g
       id="g2995"><g
         id="g2997"
         clip-path="url(#clipPath2999)"><g
           id="g3003"><g
             id="g3005" /><g
             id="g3011"><g
               clip-path="url(#clipPath3007)"
               id="g3013"><g
                 transform="translate(421.91991,192.6055)"
                 id="g3015"><path
                   d="m 0,0 66.33,45.34 c 0,0 -49,58 -9.33,126.66 L 36,211 -33.17,211.05 -56,171.34 c 0,0 35.66,-60.5 -8,-126.34 L 0,0 z m 82.83,46.17 -83,-57 L -81,45.34 c 14.63,4.18 15.12,35.36 12.33,15.83 l -15,4 c 43.4,56.35 27.27,90.65 13.68,106.16 -0.11,0.12 -0.22,0.25 -0.33,0.37 -5.69,6.39 -10.85,9.47 -10.85,9.47 l 39,38 83.82,0.07 40.68,-37.57 c -59.5,-53.5 -1.5,-111.5 -1.5,-111.5 l -15,-6.5 c 6,-14 17,-17.5 17,-17.5"
                   style="fill:#231f20;fill-opacity:1;fill-rule:nonzero;stroke:none"
                   id="path3017"
                   inkscape:connector-curvature="0" /></g><g
                 transform="translate(488.25,237.9453)"
                 id="g3019"><path
                   d="m 0,0 -66.33,-45.34 -64,45 c 43.66,65.84 8,126.34 8,126.34 l 22.83,39.71 69.17,-0.05 21,-39 C -49,58 0,0 0,0"
                   style="fill:#27963c;fill-opacity:1;fill-rule:nonzero;stroke:none"
                   id="path3021"
                   inkscape:connector-curvature="0" /></g></g></g></g><g
           id="g3023"
           transform="translate(351.6001,364.30521)"><path
             d="m 0,0 c -5.69,6.39 -10.85,9.47 -10.85,9.47 l 39,38 83.82,0.07 40.68,-37.57 c -59.5,-53.5 -1.5,-111.5 -1.5,-111.5 l -15,-6.5 c 6,-14 17,-17.5 17,-17.5 l -83,-57 -80.83,56.17 c 14.63,4.18 15.12,35.36 12.33,15.83 l -15,4 C 30.05,-50.18 13.92,-15.88 0.33,-0.37 0.22,-0.25 0.11,-0.12 0,0 z"
             style="fill:none;stroke:#231f20;stroke-width:1;stroke-linecap:butt;stroke-linejoin:miter;stroke-miterlimit:4;stroke-opacity:1;stroke-dasharray:none"
             id="path3025"
             inkscape:connector-curvature="0" /></g><g
           id="g3027"
           transform="translate(357.91991,237.6055)"><path
             d="m 0,0 64,-45 66.33,45.34 c 0,0 -49,58 -9.33,126.66 L 100,166 30.83,166.05 8,126.34 C 8,126.34 43.66,65.84 0,0 z"
             style="fill:none;stroke:#231f20;stroke-width:1;stroke-linecap:butt;stroke-linejoin:miter;stroke-miterlimit:4;stroke-opacity:1;stroke-dasharray:none"
             id="path3029"
             inkscape:connector-curvature="0" /></g><g
           id="g3031"><g
             id="g3033" /><g
             id="g3039"><g
               clip-path="url(#clipPath3035)"
               id="g3041"><g
                 transform="translate(485.0195,195.6055)"
                 id="g3043"><path
                   d="m 0,0 c 0,0 -40.67,31.34 -24.34,96 0,0 13.67,-82 43,-95.66 L 0,0 z"
                   style="fill:#231f20;fill-opacity:1;fill-rule:nonzero;stroke:none"
                   id="path3045"
                   inkscape:connector-curvature="0" /></g><g
                 transform="translate(339.3101,196.9453)"
                 id="g3047"><path
                   d="M 0,0 C 29.34,13.66 43,95.66 43,95.66 59.34,31 18.67,-0.34 18.67,-0.34 L 0,0 z"
                   style="fill:#231f20;fill-opacity:1;fill-rule:nonzero;stroke:none"
                   id="path3049"
                   inkscape:connector-curvature="0" /></g><g
                 transform="translate(342.6499,349.6055)"
                 id="g3051"><path
                   d="m 0,0 8.33,14.67 8.75,-12 -8.42,-15 L 0,0 z"
                   style="fill:#231f20;fill-opacity:1;fill-rule:nonzero;stroke:none"
                   id="path3053"
                   inkscape:connector-curvature="0" /></g><g
                 transform="translate(493.9805,337.9453)"
                 id="g3055"><path
                   d="M 0,0 -8.671,13.16 0,25.66 8.5,12.16 0,0 z"
                   style="fill:#231f20;fill-opacity:1;fill-rule:nonzero;stroke:none"
                   id="path3057"
                   inkscape:connector-curvature="0" /></g></g></g></g><g
           id="g3059"
           transform="translate(493.9805,363.6055)"><path
             d="M 0,0 8.5,-13.5 0,-25.66 -8.671,-12.5 0,0 z"
             style="fill:none;stroke:#231f20;stroke-width:1;stroke-linecap:butt;stroke-linejoin:miter;stroke-miterlimit:4;stroke-opacity:1;stroke-dasharray:none"
             id="path3061"
             inkscape:connector-curvature="0" /></g><g
           id="g3063"
           transform="translate(339.3101,196.9453)"><path
             d="m 0,0 18.67,-0.34 c 0,0 40.67,31.34 24.33,96 0,0 -13.66,-82 -43,-95.66 z"
             style="fill:none;stroke:#231f20;stroke-width:1;stroke-linecap:butt;stroke-linejoin:miter;stroke-miterlimit:4;stroke-opacity:1;stroke-dasharray:none"
             id="path3065"
             inkscape:connector-curvature="0" /></g><g
           id="g3067"
           transform="translate(503.6797,195.9453)"><path
             d="m 0,0 -18.66,-0.34 c 0,0 -40.67,31.34 -24.34,96 0,0 13.67,-82 43,-95.66 z"
             style="fill:none;stroke:#231f20;stroke-width:1;stroke-linecap:butt;stroke-linejoin:miter;stroke-miterlimit:4;stroke-opacity:1;stroke-dasharray:none"
             id="path3069"
             inkscape:connector-curvature="0" /></g><g
           id="g3071"
           transform="translate(359.73,352.27541)"><path
             d="M 0,0 -8.42,-15 -17.08,-2.67 -8.75,12 0,0 z"
             style="fill:none;stroke:#231f20;stroke-width:1;stroke-linecap:butt;stroke-linejoin:miter;stroke-miterlimit:4;stroke-opacity:1;stroke-dasharray:none"
             id="path3073"
             inkscape:connector-curvature="0" /></g><g
           id="g3075"
           transform="translate(399.313,284.8457)" /><g
           id="g3079"
           transform="translate(416.53419,256.59959)" /><g
           id="g3083"
           transform="translate(450.0723,249.51759)" /><g
           id="g3087"
           transform="translate(403.6665,228.1348)" /><g
           id="g3091"
           transform="translate(415.15669,221.5547)" /><g
           id="g3095"
           transform="translate(425.3506,221.5547)" /><g
           id="g3099"
           transform="translate(436.793,224.3105)" /><g
           id="g3103"><g
             id="g3105" /><g
             id="g3111"><g
               clip-path="url(#clipPath3107)"
               id="g3113"><g
                 transform="translate(429.8506,341.5571)"
                 id="g3115"><path
                   d="M 0,0 C 0.035,0.734 -0.435,1.404 -1.65,1.653 -1.96,1.213 -1.711,0.205 -2.4,0.144 c -1.835,-0.262 -2.844,0.3 -3.02,1.698 1.193,-0.588 2.566,0.6 1.887,1.886 l -1.328,0 c -0.418,0.585 -0.776,1.229 -0.939,2.075 0.154,0.418 0.891,0.246 0.939,0.76 -1.331,0.986 -2.152,3.498 -1.5,5.847 1.104,-1.918 1.998,-4.041 2.639,-6.419 0.891,0.058 1.115,0.773 1.88,0.945 C -0.262,5.113 1.529,3.508 2.502,1.092 1.446,1.082 0.415,1.05 0.415,-0.013 L 0,0 z"
                   style="fill:#231f20;fill-opacity:1;fill-rule:nonzero;stroke:none"
                   id="path3117"
                   inkscape:connector-curvature="0" /></g><g
                 transform="translate(415.187,348.49319)"
                 id="g3119"><path
                   d="M 0,0 C 0.654,-0.291 0.932,-0.951 1.883,-0.945 1.749,0.405 2.059,0.913 2.64,1.136 2.937,2.742 3.565,4.957 4.714,5.094 4.75,2.541 3.923,0.855 3.02,-0.753 3.377,-0.833 3.827,-0.823 3.77,-1.321 3.514,-2.448 3.262,-3.581 1.51,-3.208 l 0,-1.506 C 2.059,-5.19 2.968,-5.129 3.393,-5.283 3.281,-6.741 1.928,-6.961 0.185,-6.792 c -0.322,0.37 -0.326,1.056 -0.565,1.509 -1.034,-0.233 -1.513,-0.756 -1.593,-1.359 l -0.293,0.038 C -2.608,-5.87 -3.824,-6.02 -4.529,-5.659 -3.205,-3.591 -1.861,-1.539 0,0"
                   style="fill:#231f20;fill-opacity:1;fill-rule:nonzero;stroke:none"
                   id="path3121"
                   inkscape:connector-curvature="0" /></g><g
                 transform="translate(413.1089,355.4771)"
                 id="g3123"><path
                   d="M 0,0 C 1.989,-0.086 2.247,2.969 2.452,5.276 2.946,4.558 4.427,5.222 4.906,4.899 4.376,4.488 3.642,4.277 3.02,3.958 2.12,0.271 -0.051,-1.168 -0.565,-4.156 -0.935,-4.539 -1.679,-4.548 -1.698,-5.286 -1.388,-5.732 -0.399,-5.5 0,-5.848 c -1.309,-2.173 -2.962,-4.082 -5.094,-5.85 -1.896,0.048 -3.163,0.731 -4.526,1.321 -0.805,-0.335 -1.804,-1.465 -1.322,-2.451 1.459,-0.089 3.125,0.702 4.533,0 -1.526,-0.243 -3.17,-0.361 -4.153,-1.136 0.029,-1.229 0.205,-3.31 1.507,-2.64 -0.409,-0.032 -0.083,0.667 -0.189,0.941 1.14,0.249 1.791,1.979 3.02,1.51 -0.144,-1.111 -1.548,-0.967 -2.075,-1.695 -0.006,-1.388 0.422,-2.346 1.698,-2.454 0.578,1.152 0.916,3.916 2.452,4.714 0.287,-0.654 1.369,-0.514 1.698,-1.13 0.166,-0.606 -0.488,-0.392 -0.565,-0.756 1.417,-1.054 2.291,0.893 2.828,1.886 l 0.293,-0.038 c -0.217,-1.561 2.235,-3.629 4.613,-2.413 -0.291,-1.721 -3.537,-1.753 -3.773,0 -0.418,-0.425 -0.82,-0.552 -0.945,-0.942 -1.353,-4.245 5.391,-4.07 6.416,-1.321 -0.054,-1.941 0.421,-3.352 1.321,-4.338 2.544,-0.217 2.586,2.065 2.643,4.338 1.092,-1.277 3.387,-2.79 5.66,-1.698 0.762,0.919 1.321,3.654 -0.38,3.961 0.163,-1.957 -3.438,-1.615 -3.393,0 2.192,-1.172 4.404,0.606 4.475,2.119 l 0.415,-0.013 c 0,-0.07 0.003,-0.143 0.012,-0.22 0.949,-0.287 1.012,-2.324 2.449,-1.51 0.555,0.534 -0.559,0.237 -0.374,0.945 0.578,0.492 1.331,0.808 2.075,1.13 1.13,-1.197 1.711,-4.076 2.266,-4.714 1.216,0.134 1.823,1.564 1.319,2.828 -0.818,0.131 -2.104,0.782 -1.698,1.51 1.401,-0.486 2.766,-1.003 2.831,-2.828 0.453,-0.077 0.405,0.344 0.941,0.188 0.246,0.823 0.38,1.758 0.38,2.828 -1.015,0.683 -2.901,0.498 -3.961,1.133 1.691,0.319 3.352,-0.428 4.711,0 -0.37,1.012 -0.743,2.02 -1.883,2.266 -1.13,-0.696 -2.438,-1.209 -4.149,-1.321 -2.35,1.692 -4.003,3.686 -5.286,6.035 0.792,-0.098 1.28,0.106 1.698,0.377 0,0.817 -0.891,0.744 -1.13,1.319 -0.412,2.677 -2.755,4.405 -3.397,7.737 -0.453,0.737 -2.001,0.386 -2.081,1.506 0.69,-0.648 2.053,-0.306 2.838,0 C 14.434,2.604 15.025,0.019 16.79,0 c 0.15,-1.366 0.797,-2.225 1.698,-2.834 0.121,0.82 -0.243,2.132 0.191,2.643 0.594,-2.675 1.58,-4.957 3.397,-6.416 1.138,1.127 0.73,3.792 1.13,5.659 0.848,-1.915 2.119,-3.412 4.902,-3.396 -0.903,1.612 -2.582,2.448 -3.02,4.529 1.296,-1.222 2.662,-2.372 4.718,-2.831 0.45,3.47 -1.251,5.79 -1.883,7.545 1.312,-0.66 4.842,-1.037 5.847,0.189 -1.898,0.179 -4.06,1.101 -4.529,2.075 1.542,-0.371 3.665,-0.131 4.715,0.568 -0.907,1.477 -2.414,2.362 -3.77,3.393 1.356,0.274 2.847,0.424 3.02,1.89 -0.76,0.117 -2.008,-0.246 -2.456,0.188 3.404,0.925 2.267,2.473 -0.375,3.204 0.737,0.399 2.045,1.22 1.509,2.267 -0.475,-0.412 -1.685,-1.076 -2.266,-0.757 0.526,0.798 1.459,1.185 1.325,2.643 l -2.647,0 c 0.38,0.568 0.735,1.155 0.569,2.263 -0.926,-0.271 -1.405,-0.986 -2.267,-1.322 0.566,1.201 1.245,2.276 1.325,3.962 -1.283,-0.163 -1.934,-0.964 -3.019,-1.321 0.599,0.973 1.261,1.886 1.321,3.396 -5.407,-0.498 -11.67,-4.472 -12.264,-9.809 -0.198,-1.804 0.208,-2.614 0.939,-3.396 0.485,-0.144 1.076,-0.188 1.328,-0.565 0.096,-1.609 -1.315,-1.705 -2.646,-1.887 -0.623,1.223 -0.323,1.395 0,2.64 -1.513,-0.038 -1.73,2.621 -0.75,3.396 -0.109,2.847 -0.096,5.57 0.188,8.111 -1.318,-0.243 -0.785,0.504 -0.753,1.321 -0.297,0.511 -1.054,-0.539 -1.325,0 0.543,1.724 1.069,3.464 2.078,4.718 -1.718,0.022 -1.522,-1.101 -2.451,-0.568 C 10,31.823 8.989,33.007 8.117,33.764 7.562,32.551 6.722,31.632 5.471,31.121 5.414,31.827 4.178,32.334 3.588,31.877 4.836,30.926 5.209,29.098 5.659,27.348 5.407,25.714 2.388,26.847 3.02,24.332 4.163,24.281 5.691,24.613 5.848,23.576 4.925,23.384 3.993,22.356 2.832,23.01 2.749,22.238 3.23,22.024 3.588,21.689 5.264,21.59 7.131,23.093 8.117,21.5 8.331,19.333 7.575,18.14 6.228,17.54 6.406,16.132 4.842,14.75 3.588,14.711 c 0.507,-1.267 0.006,-1.64 -0.38,-2.831 -1.344,0.23 -2.7,0.444 -2.64,2.075 1.676,0.268 2.381,1.286 2.452,2.831 0.271,5.943 -6.748,10.122 -12.452,10.751 0.013,-1.497 1.197,-2.825 1.322,-3.585 -0.802,0.709 -1.692,1.328 -3.02,1.51 0.016,-1.497 1.101,-2.92 1.133,-3.773 -0.856,0.217 -1.152,0.986 -2.075,1.133 -0.386,-1.21 0.725,-1.905 0.565,-2.263 -0.862,-0.083 -2.077,0.189 -2.639,-0.191 0.047,-1.271 0.963,-1.673 1.318,-2.64 -0.865,0.204 -1.529,0.606 -2.451,0.753 0.092,-1.293 1.161,-1.606 1.886,-2.263 -1.086,-0.361 -2.534,-0.357 -2.828,-1.507 0.453,-0.932 1.583,-1.184 2.451,-1.697 l -2.643,0 c 0.179,-1.587 2.079,-1.447 3.208,-2.078 -1.66,-0.728 -3.051,-1.728 -3.773,-3.394 1.332,-0.676 3.955,-0.542 5.095,-0.379 -1.373,-1.143 -3.431,-1.6 -5.095,-2.452 1.714,-0.75 4.811,-0.175 6.036,0 -1.325,-1.819 -2.193,-4.092 -2.075,-7.357 2.126,0.204 3.607,2.052 4.718,2.646 -0.472,-1.921 -1.934,-2.85 -3.019,-4.156 2.831,-0.677 4.114,1.791 5.282,3.396 0.032,-2.164 -0.271,-4.673 0.757,-5.847 1.985,1.283 2.601,3.936 3.581,6.224 l 0,-2.451 C -0.625,-2.397 -0.121,-1.389 0,0 m 4.529,-22.452 c -3.887,-0.859 -6.658,0.833 -6.789,4.338 -0.494,0.073 -1.034,0.096 -1.324,0.377 -0.744,-1.29 -0.597,-2.71 -2.264,-3.017 -1.637,-0.3 -2.259,0.76 -3.772,1.698 -1.095,0.68 -2.822,0.581 -3.02,2.264 -0.166,1.439 -0.935,4.028 -0.942,4.337 -0.05,2.356 2.139,4.597 4.715,4.338 1.079,-0.105 1.666,-1.018 3.019,-0.942 -0.478,0.53 -2.039,1.606 -2.262,3.02 -4.996,-2.244 -8.925,2.934 -6.793,7.922 -2.039,0.543 -4.079,0.613 -4.526,2.451 -0.125,0.518 0.386,1.022 0.377,1.887 -0.019,1.673 -0.422,3.154 1.133,4.338 -1.114,1.717 -1.248,5.378 0.565,6.604 -1.047,4.708 4.175,4.74 3.961,9.244 1.519,0.801 1.714,2.946 3.208,3.393 3.977,1.197 8.669,-2.691 10.753,-4.15 0.466,1.357 1.456,2.19 2.264,3.208 -1.038,1.296 -3.014,4.587 -0.189,5.471 0.769,0.243 1.666,-0.252 2.64,0 1.711,0.443 2.327,2.324 4.338,1.51 0.868,-0.351 0.893,-1.207 1.509,-1.698 4.313,1.609 5.34,-3.099 2.831,-4.906 0.342,-1.478 1.616,-2.03 1.319,-4.15 2.78,1.855 6.859,5.915 12.455,4.338 0.322,-1.43 1.892,-1.915 2.451,-3.016 0.508,-1.003 0.172,-2.353 0.941,-3.397 0.47,-0.411 1.195,-0.571 1.699,-0.944 0.191,-1.252 0.958,-1.938 1.509,-2.828 0.023,-3.065 2.544,-6.024 0.377,-8.491 1.8,-1.724 1.344,-3.964 1.51,-6.789 -0.913,-1.229 -2.388,-1.893 -4.526,-1.886 2.221,-5.005 -1.724,-10.301 -6.608,-8.111 -0.702,-1.124 -1.225,-2.419 -2.451,-3.02 1.248,-0.357 1.81,0.789 2.831,0.942 3.48,0.533 6.193,-3.62 4.15,-6.412 0.185,-2.698 -0.894,-4.137 -3.02,-4.527 -1.241,-2.403 -6.23,-2.212 -6.032,1.319 -0.24,-0.262 -0.891,-0.115 -1.137,-0.377 -0.584,-3.007 -3.284,-5.662 -7.162,-4.15 -0.923,-3.543 -6.592,-3.463 -7.738,-0.188"
                   style="fill:#231f20;fill-opacity:1;fill-rule:nonzero;stroke:none"
                   id="path3125"
                   inkscape:connector-curvature="0" /></g><g
                 transform="translate(416.1284,372.2632)"
                 id="g3127"><path
                   d="m 0,0 c -0.07,-1.545 -0.775,-2.563 -2.451,-2.831 -0.061,-1.631 1.296,-1.845 2.639,-2.075 0.387,1.191 0.888,1.564 0.38,2.831 1.255,0.039 2.819,1.421 2.64,2.828 1.347,0.601 2.104,1.794 1.89,3.961 C 4.111,6.307 2.244,4.804 0.568,4.903 0.211,5.238 -0.271,5.452 -0.188,6.224 0.974,5.57 1.906,6.598 2.828,6.79 2.672,7.827 1.143,7.495 0,7.546 c -0.632,2.515 2.388,1.382 2.64,3.016 -0.45,1.75 -0.824,3.578 -2.072,4.529 0.591,0.457 1.826,-0.05 1.884,-0.756 1.251,0.511 2.09,1.43 2.646,2.643 C 5.969,16.221 6.981,15.037 7.549,14.711 8.478,14.179 8.283,15.302 10,15.28 8.992,14.025 8.465,12.286 7.922,10.562 c 0.272,-0.539 1.029,0.511 1.326,0 C 9.215,9.745 8.682,8.998 10,9.241 9.716,6.7 9.704,3.977 9.812,1.13 8.833,0.354 9.049,-2.304 10.562,-2.266 c -0.322,-1.245 -0.622,-1.417 0,-2.64 1.331,0.182 2.742,0.278 2.646,1.886 -0.251,0.377 -0.842,0.422 -1.328,0.565 -0.73,0.783 -1.136,1.593 -0.938,3.397 0.594,5.337 6.856,9.31 12.264,9.808 -0.061,-1.509 -0.722,-2.422 -1.322,-3.396 1.085,0.358 1.737,1.159 3.02,1.322 -0.08,-1.686 -0.76,-2.761 -1.325,-3.962 0.862,0.336 1.34,1.051 2.266,1.322 0.166,-1.108 -0.188,-1.695 -0.568,-2.263 l 2.646,0 C 28.057,2.314 27.125,1.928 26.598,1.13 c 0.581,-0.319 1.791,0.345 2.267,0.757 0.536,-1.047 -0.773,-1.868 -1.51,-2.267 2.643,-0.731 3.779,-2.279 0.376,-3.204 0.447,-0.435 1.695,-0.071 2.455,-0.188 -0.173,-1.466 -1.663,-1.616 -3.019,-1.89 1.356,-1.031 2.863,-1.916 3.769,-3.393 -1.05,-0.699 -3.173,-0.939 -4.715,-0.569 0.47,-0.973 2.631,-1.896 4.529,-2.074 -1.004,-1.226 -4.535,-0.849 -5.846,-0.189 0.632,-1.755 2.333,-4.075 1.883,-7.545 -2.056,0.459 -3.422,1.609 -4.718,2.831 0.437,-2.081 2.116,-2.918 3.019,-4.529 -2.783,-0.016 -4.053,1.481 -4.902,3.396 -0.399,-1.868 0.009,-4.533 -1.13,-5.66 -1.816,1.459 -2.803,3.742 -3.396,6.416 -0.435,-0.51 -0.071,-1.822 -0.192,-2.643 -0.9,0.61 -1.548,1.469 -1.698,2.835 -1.765,0.019 -2.355,2.604 -2.071,5.276 -0.785,-0.306 -2.149,-0.648 -2.838,0 0.08,-1.12 1.628,-0.769 2.081,-1.507 0.641,-3.332 2.984,-5.059 3.396,-7.736 0.24,-0.575 1.13,-0.502 1.13,-1.319 -0.418,-0.271 -0.906,-0.475 -1.698,-0.377 1.283,-2.349 2.937,-4.343 5.286,-6.035 1.711,0.111 3.02,0.625 4.15,1.321 1.139,-0.246 1.512,-1.254 1.882,-2.266 -1.359,-0.428 -3.019,0.319 -4.711,0 1.06,-0.635 2.947,-0.45 3.961,-1.134 0,-1.069 -0.133,-2.004 -0.38,-2.827 -0.536,0.156 -0.488,-0.265 -0.941,-0.189 -0.064,1.826 -1.43,2.343 -2.831,2.829 -0.405,-0.729 0.881,-1.379 1.698,-1.51 0.504,-1.264 -0.102,-2.695 -1.318,-2.828 -0.556,0.638 -1.137,3.517 -2.267,4.714 -0.744,-0.322 -1.497,-0.638 -2.075,-1.13 -0.184,-0.708 0.93,-0.412 0.374,-0.945 -1.436,-0.814 -1.5,1.223 -2.448,1.51 -0.01,0.077 -0.013,0.15 -0.013,0.22 0,1.063 1.031,1.095 2.087,1.105 -0.973,2.416 -2.764,4.021 -4.344,5.844 -0.765,-0.172 -0.989,-0.887 -1.88,-0.945 -0.641,2.378 -1.535,4.501 -2.639,6.419 -0.652,-2.349 0.169,-4.861 1.5,-5.848 -0.048,-0.513 -0.785,-0.341 -0.939,-0.759 0.163,-0.846 0.521,-1.491 0.939,-2.075 l 1.328,0 c 0.68,-1.286 -0.693,-2.474 -1.887,-1.886 0.176,-1.398 1.185,-1.96 3.02,-1.699 0.689,0.062 0.44,1.07 0.75,1.51 1.216,-0.249 1.685,-0.919 1.65,-1.653 -0.07,-1.513 -2.282,-3.291 -4.474,-2.119 -0.045,-1.615 3.555,-1.957 3.392,0 1.701,-0.307 1.143,-3.042 0.38,-3.962 -2.272,-1.091 -4.567,0.422 -5.659,1.699 -0.058,-2.273 -0.1,-4.556 -2.643,-4.338 -0.9,0.986 -1.376,2.397 -1.322,4.338 -1.024,-2.749 -7.769,-2.924 -6.416,1.321 0.125,0.39 0.527,0.517 0.945,0.942 0.237,-1.753 3.483,-1.721 3.773,0 -2.378,-1.217 -4.829,0.852 -4.612,2.413 0.08,0.603 0.559,1.126 1.593,1.359 0.239,-0.453 0.242,-1.139 0.565,-1.51 1.742,-0.168 3.096,0.052 3.208,1.51 -0.425,0.154 -1.335,0.093 -1.884,0.569 l 0,1.506 c 1.753,-0.373 2.005,0.76 2.26,1.887 0.058,0.498 -0.392,0.488 -0.75,0.568 0.903,1.608 1.73,3.294 1.695,5.847 -1.149,-0.137 -1.778,-2.352 -2.075,-3.958 -0.581,-0.223 -0.89,-0.731 -0.756,-2.081 -0.951,-0.006 -1.229,0.654 -1.883,0.945 -1.861,-1.539 -3.205,-3.591 -4.53,-5.659 0.706,-0.361 1.922,-0.211 2.263,-0.945 -0.536,-0.993 -1.411,-2.94 -2.828,-1.886 0.077,0.364 0.731,0.15 0.565,0.756 -0.328,0.616 -1.411,0.476 -1.698,1.13 -1.535,-0.798 -1.873,-3.562 -2.451,-4.714 -1.277,0.108 -1.705,1.066 -1.698,2.454 0.526,0.728 1.931,0.584 2.074,1.695 -1.229,0.469 -1.88,-1.261 -3.019,-1.51 0.105,-0.274 -0.22,-0.973 0.188,-0.941 -1.302,-0.671 -1.478,1.411 -1.507,2.64 0.984,0.775 2.627,0.893 4.153,1.136 -1.407,0.702 -3.073,-0.09 -4.532,0 -0.482,0.986 0.517,2.116 1.321,2.451 1.363,-0.59 2.63,-1.274 4.526,-1.321 2.133,1.768 3.786,3.677 5.094,5.85 -0.398,0.348 -1.388,0.115 -1.697,0.562 0.019,0.738 0.762,0.747 1.133,1.13 0.514,2.988 2.684,4.427 3.584,8.114 0.623,0.319 1.357,0.53 1.887,0.941 -0.479,0.323 -1.96,-0.341 -2.455,0.377 -0.204,-2.307 -0.463,-5.362 -2.452,-5.276 -0.121,-1.389 -0.625,-2.397 -1.697,-2.835 l 0,2.452 c -0.98,-2.289 -1.596,-4.941 -3.582,-6.225 -1.028,1.175 -0.724,3.684 -0.756,5.848 -1.169,-1.605 -2.452,-4.073 -5.283,-3.396 1.086,1.306 2.547,2.234 3.02,4.156 -1.111,-0.594 -2.592,-2.442 -4.718,-2.646 -0.118,3.265 0.75,5.538 2.075,7.357 -1.226,-0.175 -4.322,-0.75 -6.036,0 1.663,0.852 3.722,1.309 5.094,2.451 -1.139,-0.162 -3.763,-0.296 -5.094,0.38 0.721,1.666 2.113,2.665 3.773,3.393 -1.13,0.632 -3.029,0.492 -3.208,2.079 l 2.643,0 c -0.869,0.513 -1.999,0.765 -2.452,1.697 0.294,1.15 1.743,1.146 2.828,1.507 -0.724,0.657 -1.794,0.97 -1.886,2.263 0.923,-0.147 1.586,-0.549 2.451,-0.753 -0.354,0.967 -1.27,1.369 -1.318,2.64 0.562,0.379 1.778,0.108 2.64,0.191 0.159,0.357 -0.952,1.053 -0.565,2.263 0.922,-0.147 1.219,-0.916 2.074,-1.133 -0.031,0.852 -1.117,2.276 -1.132,3.773 1.327,-0.182 2.218,-0.801 3.019,-1.51 -0.124,0.76 -1.308,2.087 -1.322,3.584 C -6.748,10.122 0.271,5.943 0,0"
                   style="fill:#f9a72b;fill-opacity:1;fill-rule:nonzero;stroke:none"
                   id="path3129"
                   inkscape:connector-curvature="0" /></g></g></g></g><g
           id="g3131"
           transform="translate(422.72951,391.3159)"><path
             d="m 0,0 c 0.868,-0.351 0.894,-1.207 1.51,-1.698 4.312,1.609 5.34,-3.099 2.831,-4.906 0.342,-1.478 1.615,-2.03 1.318,-4.149 2.78,1.854 6.86,5.914 12.455,4.337 0.323,-1.43 1.893,-1.915 2.451,-3.016 0.508,-1.003 0.172,-2.353 0.942,-3.397 0.47,-0.411 1.194,-0.571 1.698,-0.944 0.191,-1.251 0.958,-1.937 1.51,-2.828 0.022,-3.065 2.544,-6.024 0.377,-8.491 1.8,-1.723 1.344,-3.964 1.51,-6.789 -0.914,-1.229 -2.388,-1.892 -4.527,-1.886 2.222,-5.005 -1.723,-10.3 -6.607,-8.111 -0.702,-1.123 -1.226,-2.419 -2.451,-3.019 1.248,-0.358 1.809,0.788 2.831,0.941 3.479,0.533 6.192,-3.62 4.149,-6.412 0.186,-2.697 -0.893,-4.137 -3.019,-4.527 -1.242,-2.403 -6.231,-2.211 -6.033,1.319 -0.24,-0.262 -0.89,-0.115 -1.136,-0.377 -0.584,-3.006 -3.285,-5.662 -7.163,-4.15 -0.922,-3.543 -6.591,-3.462 -7.737,-0.188 -3.888,-0.858 -6.659,0.833 -6.789,4.338 -0.495,0.074 -1.035,0.096 -1.325,0.377 -0.744,-1.29 -0.597,-2.71 -2.263,-3.017 -1.637,-0.3 -2.26,0.76 -3.773,1.698 -1.095,0.68 -2.822,0.582 -3.019,2.264 -0.166,1.439 -0.936,4.028 -0.942,4.338 -0.051,2.355 2.139,4.596 4.714,4.337 1.079,-0.105 1.667,-1.018 3.02,-0.941 -0.479,0.529 -2.04,1.605 -2.263,3.019 -4.996,-2.244 -8.925,2.934 -6.792,7.922 -2.04,0.543 -4.08,0.613 -4.527,2.452 -0.124,0.517 0.386,1.021 0.377,1.886 -0.019,1.673 -0.421,3.154 1.133,4.338 -1.114,1.717 -1.248,5.378 0.565,6.604 -1.047,4.708 4.175,4.74 3.961,9.244 1.52,0.801 1.714,2.946 3.208,3.393 3.977,1.197 8.669,-2.691 10.754,-4.149 0.466,1.356 1.455,2.189 2.263,3.207 -1.038,1.296 -3.013,4.587 -0.189,5.471 0.77,0.243 1.666,-0.252 2.64,0 C -2.627,-1.066 -2.011,0.814 0,0 z"
             style="fill:none;stroke:#231f20;stroke-width:0.25;stroke-linecap:butt;stroke-linejoin:miter;stroke-miterlimit:4;stroke-opacity:1;stroke-dasharray:none"
             id="path3133"
             inkscape:connector-curvature="0" /></g><g
           id="g3135"
           transform="translate(412.9209,341.88921)"><path
             d="m 0,0 c -0.537,-0.993 -1.411,-2.94 -2.828,-1.886 0.077,0.364 0.731,0.15 0.565,0.756 -0.329,0.616 -1.411,0.476 -1.698,1.13 -1.536,-0.798 -1.874,-3.562 -2.452,-4.714 -1.276,0.108 -1.704,1.066 -1.698,2.454 0.527,0.728 1.931,0.584 2.075,1.695 -1.229,0.469 -1.88,-1.261 -3.02,-1.51 0.106,-0.274 -0.22,-0.973 0.189,-0.941 -1.302,-0.671 -1.478,1.411 -1.507,2.64 0.983,0.775 2.627,0.893 4.153,1.136 -1.408,0.702 -3.074,-0.09 -4.533,0 -0.482,0.986 0.517,2.116 1.322,2.451 1.363,-0.59 2.63,-1.273 4.526,-1.321 2.132,1.768 3.785,3.677 5.094,5.85 -0.399,0.348 -1.388,0.115 -1.698,0.562 0.019,0.738 0.763,0.747 1.133,1.13 0.514,2.988 2.685,4.427 3.585,8.114 0.622,0.319 1.356,0.53 1.886,0.941 C 4.615,18.81 3.134,18.146 2.64,18.864 2.435,16.557 2.177,13.502 0.188,13.588 0.067,12.199 -0.438,11.191 -1.51,10.753 l 0,2.452 C -2.49,10.917 -3.106,8.264 -5.091,6.98 c -1.028,1.175 -0.725,3.684 -0.757,5.848 -1.168,-1.605 -2.451,-4.073 -5.282,-3.396 1.085,1.306 2.547,2.235 3.019,4.156 -1.111,-0.594 -2.592,-2.442 -4.718,-2.646 -0.118,3.265 0.75,5.538 2.075,7.357 -1.225,-0.175 -4.322,-0.75 -6.036,0 1.664,0.852 3.722,1.309 5.095,2.451 -1.14,-0.162 -3.763,-0.296 -5.095,0.38 0.722,1.666 2.113,2.665 3.773,3.393 -1.129,0.632 -3.029,0.492 -3.208,2.079 l 2.643,0 c -0.868,0.513 -1.998,0.765 -2.451,1.697 0.294,1.15 1.742,1.146 2.828,1.507 -0.725,0.657 -1.794,0.97 -1.886,2.263 0.922,-0.147 1.586,-0.549 2.451,-0.753 -0.355,0.967 -1.271,1.369 -1.318,2.64 0.562,0.379 1.777,0.108 2.639,0.191 0.16,0.357 -0.951,1.053 -0.565,2.263 0.923,-0.147 1.219,-0.916 2.075,-1.133 -0.032,0.852 -1.117,2.276 -1.133,3.773 1.328,-0.182 2.218,-0.801 3.02,-1.51 -0.125,0.76 -1.309,2.087 -1.322,3.585 C -3.54,40.496 3.479,36.317 3.208,30.374 3.137,28.829 2.432,27.811 0.756,27.543 c -0.06,-1.631 1.296,-1.845 2.64,-2.075 0.386,1.191 0.887,1.564 0.38,2.831 1.254,0.039 2.818,1.421 2.64,2.828 1.347,0.601 2.103,1.794 1.889,3.961 -0.986,1.593 -2.853,0.09 -4.529,0.189 -0.358,0.335 -0.839,0.549 -0.756,1.321 1.161,-0.654 2.093,0.374 3.016,0.566 -0.157,1.037 -1.685,0.705 -2.828,0.756 -0.632,2.515 2.387,1.382 2.639,3.016 -0.45,1.75 -0.823,3.578 -2.071,4.529 0.59,0.457 1.826,-0.05 1.883,-0.756 1.251,0.511 2.091,1.43 2.646,2.643 0.872,-0.757 1.883,-1.941 2.452,-2.267 0.929,-0.532 0.733,0.591 2.451,0.569 -1.009,-1.255 -1.535,-2.994 -2.078,-4.718 0.271,-0.539 1.028,0.511 1.325,0 -0.032,-0.817 -0.565,-1.564 0.753,-1.321 -0.284,-2.541 -0.297,-5.264 -0.188,-8.111 -0.98,-0.775 -0.763,-3.434 0.75,-3.396 -0.323,-1.245 -0.623,-1.417 0,-2.64 1.331,0.182 2.742,0.278 2.646,1.886 -0.252,0.377 -0.843,0.422 -1.328,0.565 -0.731,0.783 -1.137,1.593 -0.939,3.397 0.594,5.337 6.857,9.31 12.264,9.809 -0.06,-1.51 -0.722,-2.423 -1.321,-3.396 1.085,0.357 1.736,1.158 3.019,1.321 -0.08,-1.686 -0.759,-2.761 -1.325,-3.962 0.862,0.336 1.341,1.051 2.267,1.322 0.166,-1.108 -0.189,-1.695 -0.569,-2.263 l 2.647,0 c 0.134,-1.459 -0.799,-1.845 -1.325,-2.643 0.581,-0.319 1.791,0.345 2.266,0.757 0.536,-1.047 -0.772,-1.868 -1.509,-2.267 2.642,-0.731 3.779,-2.279 0.375,-3.204 0.448,-0.435 1.696,-0.071 2.456,-0.188 -0.173,-1.466 -1.664,-1.616 -3.02,-1.89 1.356,-1.031 2.863,-1.916 3.77,-3.393 -1.05,-0.699 -3.173,-0.939 -4.715,-0.569 0.469,-0.973 2.631,-1.896 4.529,-2.074 -1.005,-1.226 -4.535,-0.849 -5.847,-0.189 0.632,-1.755 2.333,-4.075 1.883,-7.545 -2.056,0.459 -3.422,1.609 -4.718,2.831 0.438,-2.081 2.117,-2.918 3.02,-4.529 -2.783,-0.016 -4.054,1.481 -4.902,3.396 -0.4,-1.868 0.008,-4.533 -1.13,-5.66 -1.817,1.459 -2.803,3.742 -3.397,6.416 -0.434,-0.51 -0.07,-1.822 -0.191,-2.643 -0.901,0.61 -1.548,1.469 -1.698,2.835 -1.765,0.019 -2.356,2.604 -2.072,5.276 -0.785,-0.306 -2.148,-0.648 -2.838,0 0.08,-1.12 1.628,-0.769 2.081,-1.507 0.642,-3.332 2.985,-5.059 3.397,-7.736 0.239,-0.575 1.13,-0.502 1.13,-1.319 C 18.258,8.031 17.77,7.827 16.978,7.925 18.261,5.576 19.914,3.582 22.264,1.89 c 1.711,0.111 3.019,0.625 4.149,1.321 1.14,-0.246 1.513,-1.254 1.883,-2.266 -1.359,-0.428 -3.02,0.319 -4.711,0 1.06,-0.635 2.946,-0.45 3.961,-1.133 0,-1.07 -0.134,-2.005 -0.38,-2.828 -0.536,0.156 -0.488,-0.265 -0.941,-0.189 -0.065,1.826 -1.43,2.343 -2.831,2.829 -0.406,-0.728 0.88,-1.379 1.698,-1.51 0.504,-1.264 -0.103,-2.695 -1.319,-2.828 -0.555,0.638 -1.136,3.517 -2.266,4.714 -0.744,-0.322 -1.497,-0.638 -2.075,-1.13 -0.185,-0.708 0.929,-0.412 0.374,-0.945 -1.437,-0.814 -1.5,1.223 -2.449,1.51 -0.009,0.077 -0.012,0.15 -0.012,0.22 0,1.063 1.031,1.095 2.087,1.105 C 18.459,3.176 16.668,4.781 15.088,6.604 14.322,6.432 14.099,5.717 13.208,5.659 12.566,8.037 11.673,10.16 10.568,12.078 9.917,9.729 10.737,7.217 12.068,6.23 12.021,5.717 11.283,5.889 11.13,5.471 11.293,4.625 11.65,3.98 12.068,3.396 l 1.328,0 C 14.076,2.11 12.703,0.922 11.51,1.51 c 0.176,-1.398 1.184,-1.96 3.019,-1.698 0.69,0.061 0.441,1.069 0.75,1.509 1.216,-0.249 1.686,-0.919 1.651,-1.653 -0.071,-1.513 -2.283,-3.291 -4.475,-2.119 -0.045,-1.615 3.556,-1.957 3.393,0 1.701,-0.307 1.142,-3.042 0.38,-3.962 -2.273,-1.091 -4.568,0.422 -5.66,1.699 -0.057,-2.273 -0.099,-4.556 -2.643,-4.338 -0.9,0.986 -1.375,2.397 -1.321,4.338 -1.025,-2.749 -7.769,-2.924 -6.416,1.321 0.125,0.39 0.527,0.517 0.945,0.942 0.236,-1.753 3.482,-1.721 3.773,0 -2.378,-1.216 -4.83,0.852 -4.613,2.413 0.08,0.603 0.559,1.126 1.593,1.359 C 2.125,0.868 2.129,0.182 2.451,-0.188 4.194,-0.357 5.547,-0.137 5.659,1.321 5.234,1.475 4.325,1.414 3.776,1.89 l 0,1.506 C 5.528,3.023 5.78,4.156 6.036,5.283 6.093,5.781 5.643,5.771 5.286,5.851 6.189,7.459 7.016,9.145 6.98,11.698 5.832,11.561 5.203,9.346 4.906,7.74 4.325,7.517 4.015,7.009 4.149,5.659 3.198,5.653 2.92,6.313 2.266,6.604 0.405,5.065 -0.938,3.013 -2.263,0.945 -1.558,0.584 -0.342,0.734 0,0 z"
             style="fill:none;stroke:#231f20;stroke-width:0.25;stroke-linecap:butt;stroke-linejoin:miter;stroke-miterlimit:4;stroke-opacity:1;stroke-dasharray:none"
             id="path3137"
             inkscape:connector-curvature="0" /></g><g
           id="g3139"
           transform="translate(382.58299,309.6729)" /><g
           id="g3143"
           transform="translate(395.3232,320.0918)" /><g
           id="g3147"
           transform="translate(399.9473,309.6729)" /><g
           id="g3151"
           transform="translate(410.3662,315.45799)" /><g
           id="g3155"
           transform="translate(420.7852,315.45799)" /><g
           id="g3159"
           transform="translate(428.88181,315.45799)" /><g
           id="g3163"
           transform="translate(435.8262,309.6729)" /><g
           id="g3167"
           transform="translate(443.93359,309.6729)" /><g
           id="g3171"
           transform="translate(452.03999,309.6729)" /></g></g><text
       xml:space="preserve"
       style="font-size:32px;font-style:normal;font-weight:normal;line-height:125%;letter-spacing:0px;word-spacing:0px;fill:#000000;fill-opacity:1;stroke:none;font-family:Sans"
       x="381.62213"
       y="-306.94485"
       id="text3072"
       sodipodi:linespacing="125%"
       transform="scale(1,-1)"><tspan
         sodipodi:role="line"
         id="tspan3074"
         x="381.62213"
         y="-306.94485"
         style="font-size:14.39999962px;font-style:normal;font-variant:normal;font-weight:bold;font-stretch:normal;fill:#ffffff;font-family:Cambria;-inkscape-font-specification:Cambria Bold">EVERGREEN</tspan></text>
<text
       xml:space="preserve"
       style="font-size:32px;font-style:normal;font-weight:normal;line-height:125%;letter-spacing:0px;word-spacing:0px;fill:#ffffff;fill-opacity:1;stroke:none;font-family:Sans"
       x="392.4859"
       y="-274.99261"
       id="text3076"
       sodipodi:linespacing="125%"
       transform="scale(1,-1)"><tspan
         sodipodi:role="line"
         id="tspan3078"
         x="392.4859"
         y="-274.99261"
         style="font-style:normal;font-variant:normal;font-weight:bold;font-stretch:normal;fill:#ffffff;font-family:Cambria;-inkscape-font-specification:Cambria Bold">AFC</tspan></text>
<text
       xml:space="preserve"
       style="font-size:32px;font-style:normal;font-weight:normal;line-height:125%;letter-spacing:0px;word-spacing:0px;fill:#ffffff;fill-opacity:1;stroke:none;font-family:Sans"
       x="398.87634"
       y="-236.01091"
       id="text3084"
       sodipodi:linespacing="125%"
       transform="scale(1,-1)"><tspan
         sodipodi:role="line"
         id="tspan3086"
         x="398.87634"
         y="-236.01091"
         style="font-size:19.20000076px;font-style:normal;font-variant:normal;font-weight:bold;font-stretch:normal;fill:#ffffff;font-family:Cambria;-inkscape-font-specification:Cambria Bold">2004</tspan></text>
<path
       sodipodi:type="star"
       style="fill:#000000;fill-opacity:1;stroke:none"
       id="path3351"
       sodipodi:sides="5"
       sodipodi:cx="-315.52814"
       sodipodi:cy="106.71895"
       sodipodi:r1="63.849491"
       sodipodi:r2="29.370766"
       sodipodi:arg1="0.75885573"
       sodipodi:arg2="1.3871743"
       inkscape:flatsided="false"
       inkscape:rounded="0"
       inkscape:randomized="0"
       d="m -269.19742,150.65325 -40.96785,-15.05729 -32.82989,28.76256 1.66057,-43.6157 -37.49981,-22.334955 41.99414,-11.898694 9.65372,-42.566326 24.29323,36.261901 43.46615,-3.97248 -26.98009,34.309784 z"
       transform="matrix(0.15471908,-0.02989057,-0.02989057,-0.15471908,453.80438,431.03748)"
       inkscape:transform-center-x="-0.028052624"
       inkscape:transform-center-y="-1.1742562" /><path
       sodipodi:type="star"
       style="fill:#000000;fill-opacity:1;stroke:none"
       id="path3351-1"
       sodipodi:sides="5"
       sodipodi:cx="-315.52814"
       sodipodi:cy="106.71895"
       sodipodi:r1="63.849491"
       sodipodi:r2="29.370766"
       sodipodi:arg1="0.75885573"
       sodipodi:arg2="1.3871743"
       inkscape:flatsided="false"
       inkscape:rounded="0"
       inkscape:randomized="0"
       d="m -269.19742,150.65325 -40.96785,-15.05729 -32.82989,28.76256 1.66057,-43.6157 -37.49981,-22.334955 41.99414,-11.898694 9.65372,-42.566326 24.29323,36.261901 43.46615,-3.97248 -26.98009,34.309784 z"
       transform="matrix(0.15471908,-0.02989057,-0.02989057,-0.15471908,493.80438,431.03748)"
       inkscape:transform-center-x="-0.022444881"
       inkscape:transform-center-y="0.93940801" /></g></svg>