<svg width="240.34" height="92.43" version="1.1" viewBox="0 0 240.336 92.429916" xmlns="http://www.w3.org/2000/svg"><path d="m68.4 61.446c-7.6383 0-14.964-3.0343-20.365-8.4353-5.401-5.4011-8.4353-12.726-8.4353-20.365v-19.2z" fill="#1abb9c"/><path d="m28.8 25.446c-7.6382 0-14.964 3.0343-20.365 8.4353-5.401 5.4011-8.4353 12.726-8.4353 20.365v19.2z" fill="#1abb9c"/><g fill="#454955"><path d="m91.913 17.775c-0.0756 0.0522-0.162 0.0868-0.2527 0.1011-0.0908 0.0143-0.1836 0.0081-0.2717-0.0183-0.0769-0.0215-0.1439-0.0693-0.1892-0.1351-0.0454-0.0657-0.0663-0.1453-0.0592-0.2249v-2.0964c-0.0025-0.2485 0.0699-0.4919 0.2078-0.6987 0.1378-0.2068 0.3347-0.3672 0.565-0.4605 1.2865-0.6984 2.6739-1.192 4.1124-1.4628 1.5751-0.2884 3.1737-0.4286 4.775-0.4188 3.68 0 6.366 0.874 8.059 2.622s2.539 4.388 2.539 7.92v13.861c0 1.104 0.019 2.0884 0.055 2.9532 0.037 0.8648 0.092 1.702 0.166 2.5116 0.015 0.105 5e-3 0.212-0.028 0.3127-0.034 0.1006-0.09 0.192-0.165 0.267s-0.166 0.1315-0.267 0.165c-0.101 0.0336-0.208 0.0432-0.313 0.0281h-1.987c-0.105 0.0151-0.212 0.0055-0.313-0.0281-0.1-0.0335-0.192-0.09-0.267-0.165s-0.131-0.1664-0.165-0.267c-0.033-0.1007-0.043-0.2077-0.028-0.3127v-4.2504c-0.756 1.8583-2.131 3.3986-3.891 4.3608-1.809 1.0265-3.855 1.5595-5.9344 1.5456-3.7176 0-6.4408-1.0856-8.1696-3.2568-0.6013-0.7625-1.0495-1.6341-1.32-2.5668-0.2929-0.9392-0.4449-1.9166-0.4512-2.9004-0.0551-2.0444 0.4919-4.06 1.5732-5.796 1.1675-1.7107 2.8644-2.9907 4.83-3.6432 2.6496-0.96 6.716-1.44 12.198-1.44h0.72v-1.6488c0.132-1.8983-0.427-3.7803-1.573-5.2992-1.047-1.2144-2.803-1.8216-5.268-1.8216-1.5792-0.0085-3.1539 0.1675-4.6922 0.5244-1.4815 0.3543-2.8974 0.9411-4.1952 1.7388zm15.732 9.66h-1.049c-1.835-0.0841-3.673-9e-4 -5.493 0.2484-1.3634 0.1795-2.7047 0.5013-4.0016 0.96-1.3869 0.4375-2.6032 1.2961-3.48 2.4564-0.7897 1.1412-1.1957 2.5042-1.1592 3.8916-0.0082 0.8752 0.1414 1.7447 0.4416 2.5668 0.2581 0.7441 0.7402 1.39 1.38 1.8492 1.2759 0.9359 2.8359 1.4022 4.416 1.32 1.2298 0.013 2.4472-0.2511 3.5602-0.7728 1.096-0.5227 2.065-1.2759 2.843-2.208 0.858-1.044 1.496-2.2499 1.878-3.546 0.466-1.5856 0.69-3.2326 0.664-4.8852z"/><path d="m139.88 43.222c-1.104 0.184-2.171 0.3128-3.202 0.3864-1.03 0.0736-2.263 0.1104-3.698 0.1104-2.097 0.0371-4.177-0.3771-6.1-1.2144-1.728-0.7676-3.271-1.897-4.526-3.312-1.264-1.4534-2.23-3.1415-2.843-4.968-0.674-1.9907-1.01-4.0806-0.992-6.1824-0.022-2.1157 0.333-4.2185 1.047-6.21 0.647-1.8213 1.666-3.4881 2.992-4.8945 1.325-1.4065 2.929-2.5218 4.709-3.2751 1.948-0.8161 4.044-1.2201 6.156-1.1868 1.213 0 2.316 0.046 3.311 0.138 1.077 0.1062 2.146 0.2814 3.201 0.5244 0.233 0.0474 0.438 0.1833 0.572 0.3789 0.134 0.1957 0.188 0.4359 0.148 0.6699l-0.165 1.7664c-0.074 0.4416-0.351 0.6072-0.828 0.4968-0.903-0.2813-1.826-0.4935-2.76-0.6348-0.97-0.1344-1.947-0.199-2.926-0.1932-1.692-0.0351-3.372 0.2748-4.94 0.9108-1.368 0.5718-2.586 1.45-3.561 2.5668-0.983 1.152-1.716 2.4961-2.151 3.9468-0.494 1.6187-0.736 3.3034-0.72 4.9956-7e-3 1.6121 0.244 3.2148 0.745 4.7472 0.467 1.4543 1.197 2.8107 2.153 4.002 0.93 1.1536 2.097 2.0947 3.422 2.76 1.434 0.7017 3.014 1.0518 4.609 1.0212 1.07 0.012 2.139-0.0433 3.202-0.1656 0.97-0.1359 1.929-0.3388 2.87-0.6072 0.552-0.1464 0.847-0.0176 0.883 0.3864l0.166 2.04c0.02 0.1169 0.015 0.2367-0.014 0.3518-0.029 0.115-0.081 0.2228-0.154 0.3164-0.073 0.0937-0.164 0.1712-0.268 0.2276-0.105 0.0564-0.22 0.0906-0.338 0.1002z"/><path d="m148.71 17.775c-0.075 0.0522-0.162 0.0867-0.253 0.1011-0.09 0.0143-0.183 0.0081-0.271-0.0183-0.077-0.0216-0.144-0.0694-0.19-0.1351-0.045-0.0658-0.066-0.1453-0.059-0.2249v-2.0964c-2e-3 -0.2485 0.07-0.492 0.208-0.6987 0.138-0.2068 0.335-0.3672 0.565-0.4605 1.286-0.6983 2.673-1.1918 4.111-1.4628 1.576-0.2868 3.175-0.4254 4.776-0.414 3.68 0 6.367 0.874 8.06 2.622 1.692 1.748 2.539 4.388 2.539 7.92v13.856c0 1.104 0.018 2.0884 0.055 2.9532s0.092 1.702 0.166 2.5116c0.015 0.105 5e-3 0.212-0.029 0.3127-0.033 0.1006-0.09 0.192-0.165 0.267s-0.166 0.1315-0.267 0.165c-0.1 0.0335-0.207 0.0431-0.312 0.0281h-1.987c-0.105 0.015-0.212 0.0054-0.313-0.0281s-0.192-0.09-0.267-0.165-0.132-0.1664-0.165-0.267c-0.034-0.1007-0.043-0.2077-0.028-0.3127v-4.2504c-0.757 1.8583-2.131 3.3986-3.892 4.3608-1.808 1.0264-3.855 1.5594-5.934 1.5456-3.717 0-6.441-1.0856-8.169-3.2568-0.602-0.7626-1.05-1.6341-1.32-2.5668-0.29-0.9389-0.439-1.9155-0.443-2.898-0.055-2.0446 0.492-4.0601 1.574-5.796 1.167-1.7104 2.864-2.9904 4.829-3.6432 2.65-0.96 6.716-1.44 12.199-1.44h0.72v-1.6512c0.132-1.8983-0.427-3.7804-1.573-5.2992-1.049-1.2144-2.806-1.8216-5.272-1.8216-1.579-0.0085-3.153 0.1674-4.692 0.5244-1.483 0.3536-2.901 0.9405-4.201 1.7388zm15.732 9.66h-1.049c-1.834-0.0841-3.673-9e-4 -5.492 0.2484-1.364 0.1795-2.705 0.5013-4.002 0.96-1.387 0.4375-2.603 1.2961-3.48 2.4564-0.79 1.1412-1.196 2.5042-1.159 3.8916-9e-3 0.8752 0.141 1.7447 0.441 2.5668 0.258 0.7441 0.74 1.39 1.38 1.8492 1.276 0.9359 2.836 1.4022 4.416 1.32 1.23 0.0129 2.447-0.2512 3.561-0.7728 1.095-0.5228 2.065-1.2759 2.843-2.208 0.858-1.0485 1.496-2.2595 1.875-3.5604 0.467-1.5856 0.69-3.2327 0.664-4.8852z"/><path d="m196.68 43.222c-1.104 0.184-2.172 0.3128-3.202 0.3864s-2.263 0.1104-3.698 0.1104c-2.097 0.0371-4.177-0.3771-6.1-1.2144-1.728-0.7676-3.272-1.897-4.526-3.312-1.265-1.4534-2.231-3.1415-2.843-4.968-0.675-1.9907-1.01-4.0806-0.993-6.1824-0.022-2.1157 0.333-4.2185 1.048-6.21 0.647-1.8213 1.665-3.4881 2.991-4.8945 1.326-1.4065 2.929-2.5218 4.709-3.2751 1.948-0.8161 4.044-1.2201 6.156-1.1868 1.213 0 2.317 0.046 3.311 0.138 1.077 0.1062 2.147 0.2814 3.202 0.5244 0.232 0.0474 0.437 0.1833 0.572 0.3789 0.134 0.1957 0.187 0.4359 0.148 0.6699l-0.166 1.7664c-0.073 0.4416-0.35 0.6072-0.828 0.4968-0.902-0.2813-1.825-0.4935-2.76-0.6348-0.969-0.1344-1.947-0.199-2.925-0.1932-1.692-0.0351-3.373 0.2748-4.941 0.9108-1.367 0.5715-2.585 1.4498-3.559 2.5668-0.985 1.1496-1.719 2.4917-2.156 3.9408-0.494 1.6187-0.737 3.3034-0.72 4.9956-7e-3 1.6121 0.244 3.2148 0.745 4.7472 0.467 1.4543 1.197 2.8107 2.153 4.002 0.931 1.1539 2.098 2.095 3.423 2.76 1.433 0.7018 3.013 1.0519 4.608 1.0212 1.07 0.012 2.139-0.0433 3.202-0.1656 0.969-0.1359 1.928-0.3388 2.87-0.6072 0.552-0.1464 0.847-0.0176 0.883 0.3864l0.166 2.04c0.021 0.1171 0.017 0.2373-0.011 0.3528-0.029 0.1155-0.081 0.2239-0.153 0.3182-0.073 0.0942-0.164 0.1724-0.268 0.2294-0.105 0.057-0.22 0.0916-0.338 0.1016z"/><path d="m203.47 2.7051c-6e-3 -0.35272 0.059-0.70298 0.192-1.0301 0.132-0.32709 0.328-0.62439 0.577-0.87433 0.24-0.2577 0.531-0.46211 0.855-0.6 0.324-0.13789 0.673-0.20616 1.025-0.2004 0.356-0.003479 0.708 0.065731 1.035 0.20338 0.328 0.13764 0.624 0.34082 0.87 0.59702 0.256 0.24609 0.459 0.54198 0.597 0.86948 0.137 0.3275 0.207 0.67969 0.203 1.0349 5e-3 0.35141-0.063 0.70002-0.201 1.0233-0.138 0.32328-0.342 0.61405-0.599 0.85351-0.25 0.2496-0.547 0.44659-0.874 0.57933s-0.678 0.19853-1.031 0.19347c-0.349 0.00653-0.695-0.05869-1.018-0.19162-0.323-0.13294-0.615-0.33075-0.858-0.58118-0.251-0.24326-0.449-0.53536-0.582-0.8582-0.133-0.32283-0.198-0.66953-0.191-1.0186zm3.919 40.296h-2.43c-0.105 0.0151-0.212 0.0054-0.313-0.0281-0.1-0.0335-0.192-0.09-0.267-0.165s-0.131-0.1664-0.165-0.267c-0.033-0.1007-0.043-0.2077-0.028-0.3127v-28.32c-0.015-0.105-5e-3 -0.212 0.028-0.3127 0.034-0.1006 0.09-0.192 0.165-0.267s0.167-0.1315 0.267-0.165c0.101-0.0335 0.208-0.0432 0.313-0.0281h2.429c0.105-0.0151 0.212-0.0054 0.312 0.0281 0.101 0.0335 0.192 0.09 0.267 0.165s0.132 0.1664 0.166 0.267c0.033 0.1007 0.043 0.2077 0.028 0.3127v28.32c0.015 0.1049 5e-3 0.2118-0.028 0.3123-0.034 0.1005-0.09 0.1919-0.165 0.2669-0.075 0.0749-0.166 0.1315-0.267 0.1651-0.1 0.0336-0.207 0.0433-0.312 0.0285z"/><path d="m218.87 17.775c-0.076 0.0522-0.162 0.0868-0.253 0.1011-0.09 0.0143-0.183 0.0081-0.271-0.0183-0.077-0.0213-0.144-0.0691-0.19-0.1349-0.045-0.0658-0.066-0.1455-0.059-0.2251v-2.0964c-2e-3 -0.2485 0.07-0.492 0.208-0.6987 0.138-0.2068 0.335-0.3672 0.565-0.4605 1.286-0.6984 2.673-1.192 4.111-1.4628 1.576-0.2869 3.175-0.4255 4.776-0.414 3.68 0 6.367 0.874 8.06 2.622 1.692 1.748 2.539 4.388 2.539 7.92v13.856c0 1.104 0.018 2.0884 0.055 2.9532s0.092 1.702 0.164 2.5116c0.015 0.1049 6e-3 0.2118-0.028 0.3123-0.033 0.1005-0.09 0.1919-0.164 0.2669-0.075 0.0749-0.167 0.1315-0.267 0.1651s-0.207 0.0433-0.312 0.0285h-1.987c-0.105 0.015-0.213 0.0054-0.313-0.0281-0.101-0.0335-0.192-0.09-0.267-0.165s-0.132-0.1664-0.165-0.267c-0.034-0.1007-0.043-0.2077-0.028-0.3127v-4.2504c-0.757 1.8583-2.131 3.3986-3.892 4.3608-1.808 1.0263-3.855 1.5593-5.934 1.5456-3.717 0-6.441-1.0856-8.169-3.2568-0.602-0.7626-1.05-1.6341-1.321-2.5668-0.293-0.9391-0.444-1.9166-0.45-2.9004-0.054-2.0446 0.493-4.0601 1.575-5.796 1.167-1.7104 2.864-2.9904 4.829-3.6432 2.649-0.96 6.716-1.44 12.199-1.44h0.72v-1.6488c0.131-1.8985-0.428-3.7805-1.574-5.2992-1.049-1.2144-2.806-1.8216-5.271-1.8216-1.579-0.0085-3.154 0.1675-4.692 0.5244-1.481 0.3544-2.897 0.9412-4.194 1.7388zm15.732 9.66h-1.049c-1.834-0.0841-3.673-9e-4 -5.492 0.2484-1.364 0.1794-2.705 0.5011-4.002 0.96-1.387 0.4381-2.603 1.2965-3.48 2.4564-0.789 1.1416-1.194 2.5044-1.158 3.8916-8e-3 0.8752 0.141 1.7447 0.442 2.5668 0.258 0.7441 0.74 1.39 1.379 1.8492 1.276 0.9359 2.836 1.4022 4.417 1.32 1.229 0.0129 2.446-0.2512 3.56-0.7728 1.095-0.5228 2.065-1.2759 2.843-2.208 0.857-1.0441 1.495-2.25 1.877-3.546 0.465-1.5857 0.689-3.2327 0.663-4.8852z"/></g><path d="m68.4 42.246v19.2l-28.8-48c7.6382 0 14.964 3.0343 20.365 8.4353 5.4011 5.4011 8.4354 12.726 8.4354 20.365z" fill="#97d8cb"/><path d="m28.8 44.646v-19.2l-28.8 48c7.6382 0 14.964-3.0343 20.365-8.4353 5.401-5.4011 8.4353-12.726 8.4353-20.365z" fill="#97d8cb"/><path d="m33.6 61.451v-54c0-0.31826 0.1264-0.62349 0.3515-0.84853 0.225-0.22504 0.5302-0.35147 0.8485-0.35147v54c0 0.3183-0.1264 0.6235-0.3515 0.8485-0.225 0.2251-0.5303 0.3515-0.8485 0.3515z" fill="#454955"/><g fill="#858b9c"><path d="m89.902 68.228c-0.1259-0.3207-0.2027-0.6585-0.2281-1.002-0.3437 0.3745-0.7624 0.6726-1.2287 0.875-0.4664 0.2024-0.9701 0.3045-1.4784 0.2998-0.8418 0.0335-1.6654-0.2505-2.3076-0.7956-0.2903-0.2481-0.5217-0.5578-0.6774-0.9065s-0.2317-0.7277-0.2226-1.1095c-0.0195-0.4483 0.0736-0.8944 0.2709-1.2975 0.1972-0.4031 0.4923-0.7504 0.8582-1.0101 0.9464-0.6015 2.0584-0.8891 3.1777-0.822h1.5816v-0.7464c0.0122-0.2492-0.0267-0.4984-0.1145-0.732-0.0877-0.2336-0.2223-0.4468-0.3955-0.6264-0.2044-0.1797-0.4425-0.3169-0.7005-0.4036-0.2579-0.0868-0.5305-0.1213-0.8019-0.1016-0.5215-0.0181-1.0344 0.1362-1.4592 0.4392-0.1777 0.1155-0.3243 0.2729-0.427 0.4582-0.1027 0.1854-0.1585 0.3931-0.1622 0.605h-1.6344c0.0097-0.502 0.1876-0.9863 0.5051-1.3752 0.3609-0.4606 0.8329-0.8219 1.3717-1.05 0.5993-0.2625 1.2477-0.3943 1.902-0.3864 0.9304-0.055 1.8481 0.2375 2.5752 0.8208 0.3139 0.2859 0.5628 0.6359 0.7297 1.0264s0.2478 0.8123 0.2375 1.2368v4.3764c-0.0277 0.7096 0.0857 1.4177 0.3336 2.0832v0.1404zm-2.6976-1.2396c0.5097 0 1.0102-0.1363 1.4496-0.3948 0.428-0.2339 0.7745-0.5926 0.9936-1.0284v-1.9512h-1.2745c-1.992 0-2.9879 0.5828-2.9879 1.7484-0.0126 0.2257 0.0268 0.4513 0.1153 0.6594 0.0884 0.208 0.2234 0.393 0.3947 0.5406 0.3702 0.2962 0.8355 0.4476 1.3092 0.426z"/><path d="m97.637 67.08c0.5531 0.0095 1.0918-0.1771 1.5204-0.5268 0.2055-0.1576 0.3757-0.3565 0.4997-0.5838s0.1991-0.4781 0.2203-0.7362h1.5388c-0.034 0.5632-0.23 1.1048-0.563 1.56-0.356 0.5012-0.832 0.9058-1.3838 1.1772-0.5679 0.287-1.1961 0.4343-1.8324 0.4296-0.5787 0.0262-1.156-0.0765-1.6902-0.3006-0.5341-0.2241-1.0119-0.5641-1.3986-0.9954-0.8112-0.9976-1.2208-2.2622-1.1484-3.546v-0.27c-0.0157-0.8509 0.1585-1.6946 0.51-2.4696 0.3135-0.6909 0.8224-1.275 1.464-1.68 0.6785-0.4111 1.4605-0.6193 2.2536-0.6 0.9766-0.0322 1.9284 0.3114 2.6588 0.96 0.349 0.315 0.63 0.6984 0.824 1.1263 0.194 0.428 0.298 0.8913 0.306 1.3613h-1.5388c-0.0289-0.5767-0.279-1.12-0.6984-1.5168-0.4185-0.3949-0.9764-0.6081-1.5516-0.5928-0.3683-0.0177-0.7353 0.0542-1.0697 0.2094-0.3344 0.1553-0.6262 0.3894-0.8503 0.6822-0.5024 0.7627-0.7418 1.6687-0.6816 2.58v0.3072c-0.0569 0.8952 0.1808 1.7845 0.6768 2.532 0.2259 0.2945 0.52 0.5297 0.857 0.6852 0.337 0.1556 0.7067 0.2268 1.0774 0.2076z"/><path d="m104.87 59.87c0.332-0.4257 0.759-0.7675 1.247-0.998 0.489-0.2305 1.024-0.3433 1.564-0.3292 2.011 0 3.024 1.1336 3.042 3.4008v6.2844h-1.626v-6.2928c0.039-0.5478-0.128-1.0905-0.47-1.5204-0.193-0.1776-0.42-0.3131-0.668-0.3979-0.248-0.0847-0.511-0.1167-0.772-0.0941-0.496-0.0096-0.982 0.1379-1.389 0.4212-0.4 0.2834-0.72 0.6648-0.931 1.1076v6.7764h-1.623v-13.5h1.626z"/><path d="m113.17 56.195c-7e-3 -0.2451 0.079-0.4838 0.24-0.6684 0.093-0.0954 0.206-0.1692 0.33-0.2163 0.124-0.047 0.258-0.0662 0.39-0.0561 0.133-9e-3 0.266 0.0106 0.39 0.0576s0.237 0.1203 0.33 0.2148c0.162 0.1842 0.248 0.4232 0.24 0.6684 0 0.2546-0.101 0.4988-0.281 0.6788s-0.424 0.2812-0.679 0.2812c-0.254 0-0.499-0.1012-0.679-0.2812s-0.281-0.4242-0.281-0.6788zm1.758 12.032h-1.626v-9.51h1.626z"/><path d="m121.47 68.4c-0.584 0.0218-1.166-0.0801-1.709-0.2989-0.542-0.2187-1.032-0.5495-1.437-0.9707-0.416-0.4588-0.737-0.995-0.945-1.5779s-0.299-1.2011-0.269-1.8193v-0.2988c-0.015-0.8727 0.17-1.7374 0.542-2.5272 0.333-0.7091 0.856-1.3115 1.512-1.74 0.624-0.4119 1.356-0.6302 2.104-0.6276 0.542-0.0292 1.083 0.0657 1.582 0.2774s0.943 0.5347 1.298 0.9442c0.747 1.0072 1.112 2.2469 1.029 3.498v0.6768h-6.441c-0.014 0.8325 0.278 1.6414 0.822 2.2716 0.251 0.2812 0.559 0.5044 0.904 0.6538 0.346 0.1495 0.72 0.2216 1.096 0.2114 0.509 0.0164 1.013-0.1046 1.459-0.3504 0.405-0.2411 0.76-0.5576 1.046-0.9324l0.993 0.774c-0.382 0.5963-0.915 1.0806-1.545 1.4032s-1.334 0.472-2.041 0.4328zm-0.202-8.52c-0.31-0.0055-0.619 0.0559-0.904 0.1802-0.285 0.1242-0.54 0.3083-0.748 0.5398-0.483 0.5639-0.772 1.2673-0.827 2.0076h4.764v-0.12c0-0.697-0.236-1.3734-0.668-1.92-0.201-0.2278-0.451-0.4077-0.731-0.5267-0.279-0.119-0.582-0.1739-0.886-0.1609z"/><path d="m130.09 66.022 2.355-7.3044h1.661l-3.41 9.51h-1.24l-3.445-9.51h1.662z"/><path d="m135.68 56.195c-8e-3 -0.2451 0.078-0.484 0.24-0.6684 0.092-0.0955 0.205-0.1694 0.329-0.2165 0.125-0.047 0.258-0.0661 0.391-0.0559 0.132-9e-3 0.265 0.0106 0.389 0.0577 0.125 0.047 0.237 0.1202 0.331 0.2147 0.162 0.1839 0.248 0.4231 0.24 0.6684 9e-3 0.2426-0.077 0.4792-0.24 0.6588-0.095 0.0923-0.208 0.1635-0.332 0.209s-0.257 0.0643-0.388 0.055c-0.132 0.0105-0.265-0.0076-0.389-0.0532-0.125-0.0456-0.238-0.1175-0.331-0.2108-0.163-0.18-0.249-0.4163-0.24-0.6588zm1.758 12.032h-1.626v-9.51h1.626z"/><path d="m141.57 58.718 0.051 1.2c0.333-0.4378 0.764-0.7903 1.26-1.0285 0.495-0.2383 1.04-0.3555 1.589-0.3419 2.009 0 3.023 1.1336 3.041 3.4008v6.2844h-1.626v-6.2976c0.039-0.5478-0.129-1.0905-0.47-1.5204-0.193-0.1776-0.421-0.3131-0.668-0.3979-0.248-0.0847-0.511-0.1167-0.772-0.0941-0.496-0.0096-0.982 0.1378-1.389 0.4212-0.4 0.2834-0.721 0.6648-0.931 1.1076v6.7764h-1.619v-9.51z"/><path d="m149.58 63.394c-0.067-1.2619 0.295-2.5092 1.028-3.5388 0.327-0.403 0.738-0.7294 1.205-0.9562 0.466-0.2267 0.977-0.3483 1.496-0.3562s1.033 0.0981 1.506 0.3106c0.474 0.2124 0.895 0.5261 1.234 0.919l0.078-1.0548h1.485v9.282c0.029 0.5342-0.053 1.0686-0.241 1.5693-0.189 0.5007-0.479 0.9568-0.853 1.3395-0.395 0.3639-0.858 0.6454-1.363 0.8279-0.505 0.1826-1.041 0.2626-1.577 0.2353-0.694-2e-3 -1.38-0.1517-2.012-0.4392-0.605-0.25-1.125-0.6661-1.503-1.2l0.84-0.9756c0.295 0.4006 0.681 0.7263 1.125 0.9508s0.935 0.3415 1.432 0.3416c0.338 0.0202 0.676-0.0287 0.994-0.1436 0.319-0.1149 0.61-0.2935 0.857-0.5248 0.231-0.2529 0.409-0.5498 0.523-0.8728s0.161-0.6657 0.14-1.0076v-0.8172c-0.331 0.3748-0.742 0.6703-1.203 0.865-0.461 0.1946-0.96 0.2832-1.459 0.2594-0.526 0.0114-1.047-0.1049-1.518-0.339s-0.878-0.5789-1.186-1.005c-0.741-1.0751-1.103-2.3662-1.028-3.6696zm1.634 0.1836c-0.05 0.8907 0.181 1.7748 0.66 2.5272 0.205 0.2963 0.482 0.536 0.805 0.6967 0.322 0.1607 0.68 0.2373 1.041 0.2225 0.472 0.0175 0.94-0.106 1.342-0.355s0.721-0.6121 0.916-1.043v-4.3416c-0.202-0.4193-0.521-0.771-0.919-1.0127s-0.857-0.3631-1.323-0.3493c-0.361-0.0138-0.72 0.0635-1.044 0.2247s-0.603 0.4013-0.81 0.6981c-0.5 0.8197-0.733 1.7744-0.668 2.7324z"/><path d="m168.34 67.08c0.553 0.0095 1.092-0.1771 1.52-0.5268 0.206-0.1576 0.376-0.3565 0.5-0.5838s0.199-0.4781 0.22-0.7362h1.539c-0.034 0.5632-0.229 1.1048-0.563 1.56-0.356 0.5012-0.832 0.9058-1.384 1.1772-0.567 0.287-1.196 0.4343-1.832 0.4296-0.579 0.0262-1.156-0.0765-1.69-0.3006s-1.012-0.5641-1.399-0.9954c-0.811-0.9978-1.22-2.2624-1.147-3.546v-0.27c-0.016-0.8508 0.158-1.6945 0.509-2.4696 0.313-0.6909 0.822-1.275 1.464-1.68 0.678-0.4111 1.46-0.6193 2.253-0.6 0.977-0.0322 1.929 0.3114 2.66 0.96 0.349 0.315 0.629 0.6984 0.823 1.1263 0.194 0.428 0.298 0.8913 0.306 1.3613h-1.539c-0.028-0.5767-0.279-1.12-0.698-1.5168-0.418-0.3949-0.976-0.6081-1.552-0.5928-0.368-0.0177-0.735 0.0542-1.069 0.2094-0.335 0.1553-0.626 0.3894-0.851 0.6822-0.502 0.7627-0.741 1.6687-0.681 2.58v0.3072c-0.057 0.8952 0.181 1.7845 0.677 2.532 0.226 0.2945 0.52 0.5297 0.857 0.6852 0.337 0.1556 0.706 0.2268 1.077 0.2076z"/><path d="m173.51 63.384c-0.014-0.8688 0.173-1.7289 0.548-2.5128 0.334-0.7092 0.865-1.3073 1.53-1.7232 0.673-0.4097 1.449-0.6199 2.237-0.606 0.59-0.0214 1.178 0.0881 1.721 0.3204 0.543 0.2324 1.028 0.5819 1.42 1.0236 0.837 0.9987 1.265 2.2762 1.2 3.5772v0.114c0.014 0.8603-0.167 1.7126-0.531 2.4924-0.33 0.7072-0.857 1.304-1.518 1.7184-0.684 0.4164-1.472 0.6296-2.272 0.6144-0.589 0.0207-1.175-0.0891-1.717-0.3214-0.542-0.2324-1.026-0.5816-1.417-1.0226-0.834-0.993-1.263-2.264-1.2-3.5592zm1.634 0.1932c-0.045 0.9049 0.213 1.799 0.734 2.5404 0.234 0.2994 0.533 0.5414 0.874 0.7074 0.341 0.1661 0.716 0.2517 1.096 0.2505 0.379-0.0013 0.754-0.0895 1.094-0.2578s0.637-0.4123 0.869-0.7133c0.531-0.8039 0.787-1.7585 0.729-2.7204 0.043-0.9041-0.219-1.7962-0.742-2.5344-0.226-0.3101-0.523-0.5606-0.867-0.73-0.343-0.1693-0.723-0.2524-1.106-0.242-0.378-0.0089-0.751 0.0738-1.09 0.241-0.338 0.1672-0.631 0.4139-0.853 0.719-0.541 0.8072-0.8 1.7701-0.738 2.7396z"/><path d="m185.75 58.718 0.052 1.2c0.332-0.4378 0.764-0.7904 1.259-1.0287s1.04-0.3554 1.589-0.3417c2.01 0 3.024 1.1336 3.041 3.4008v6.2844h-1.626v-6.2976c0.039-0.5477-0.128-1.0903-0.469-1.5204-0.193-0.1776-0.42-0.3132-0.668-0.3979s-0.511-0.1167-0.772-0.0941c-0.496-0.0098-0.982 0.1377-1.389 0.4212-0.4 0.2838-0.721 0.665-0.932 1.1076v6.7764h-1.626v-9.51z"/><path d="m196.35 56.415v2.3028h1.776v1.2576h-1.776v5.9052c-0.022 0.3052 0.063 0.6085 0.24 0.858 0.105 0.1049 0.232 0.1851 0.372 0.2347s0.289 0.0674 0.436 0.0521c0.261-0.0099 0.52-0.0452 0.773-0.1056v1.3104c-0.406 0.1121-0.826 0.1694-1.248 0.1704-0.306 0.0219-0.612-0.0261-0.897-0.1402-0.285-0.1142-0.54-0.2915-0.746-0.5186-0.401-0.5384-0.597-1.202-0.554-1.872v-5.8944h-1.732v-1.2576h1.732v-2.3028z"/><path d="m204.62 60.177c-0.264-0.0422-0.531-0.0627-0.799-0.0612-0.46-0.0375-0.92 0.0748-1.312 0.3203-0.391 0.2455-0.692 0.6109-0.859 1.0417v6.75h-1.626v-9.51h1.58l0.026 1.0992c0.227-0.3978 0.558-0.7265 0.958-0.9509 0.399-0.2245 0.852-0.3363 1.31-0.3235 0.246-0.0136 0.492 0.0274 0.72 0.12z"/><path d="m205.5 63.384c-0.014-0.8688 0.174-1.7289 0.548-2.5128 0.335-0.709 0.866-1.307 1.53-1.7232 0.673-0.4097 1.449-0.6199 2.237-0.606 0.59-0.0214 1.178 0.0881 1.721 0.3204 0.543 0.2324 1.028 0.5819 1.421 1.0236 0.836 0.9987 1.265 2.2762 1.2 3.5772v0.114c0.014 0.8603-0.168 1.7126-0.532 2.4924-0.33 0.7075-0.858 1.3043-1.52 1.7184-0.684 0.4166-1.472 0.6298-2.272 0.6144-0.589 0.0206-1.176-0.0892-1.717-0.3215-0.542-0.2324-1.026-0.5815-1.417-1.0225-0.834-0.993-1.263-2.264-1.2-3.5592zm1.634 0.1932c-0.045 0.9049 0.214 1.799 0.735 2.5404 0.233 0.2994 0.532 0.5414 0.873 0.7074 0.342 0.1661 0.716 0.2517 1.096 0.2505 0.38-0.0013 0.754-0.0895 1.094-0.2578 0.341-0.1683 0.638-0.4123 0.869-0.7133 0.532-0.8036 0.788-1.7585 0.73-2.7204 0.042-0.9038-0.219-1.7958-0.742-2.5344-0.225-0.3101-0.523-0.5606-0.867-0.73-0.344-0.1693-0.724-0.2524-1.107-0.242-0.377-0.0087-0.751 0.0741-1.089 0.2413-0.339 0.1671-0.631 0.4137-0.854 0.7187-0.54 0.8072-0.8 1.7701-0.738 2.7396z"/><path d="m217.97 68.228h-1.626v-13.5h1.626z"/><path d="m224.6 63.384c-0.015-0.8689 0.174-1.7292 0.549-2.5128 0.334-0.7089 0.865-1.307 1.529-1.7232 0.673-0.4097 1.449-0.6199 2.237-0.606 0.59-0.0214 1.178 0.0881 1.721 0.3204 0.543 0.2324 1.028 0.5819 1.42 1.0236 0.837 0.9987 1.265 2.2762 1.2 3.5772v0.114c0.015 0.8604-0.167 1.7128-0.531 2.4924-0.33 0.7075-0.858 1.3043-1.519 1.7184-0.684 0.4166-1.473 0.6297-2.273 0.6144-0.589 0.0206-1.175-0.0892-1.717-0.3216-0.542-0.2323-1.025-0.5814-1.416-1.0224-0.834-0.9931-1.263-2.2641-1.2-3.5592zm1.634 0.1932c-0.045 0.9049 0.213 1.799 0.734 2.5404 0.234 0.2994 0.533 0.5414 0.874 0.7075 0.342 0.166 0.717 0.2517 1.096 0.2504 0.38-0.0013 0.755-0.0895 1.095-0.2578s0.638-0.4123 0.869-0.7133c0.531-0.804 0.787-1.7587 0.728-2.7204 0.042-0.9038-0.219-1.7958-0.741-2.5344-0.226-0.3101-0.523-0.5606-0.867-0.73-0.344-0.1693-0.724-0.2524-1.107-0.242-0.377-0.0088-0.751 0.0739-1.089 0.2411s-0.631 0.4139-0.853 0.7189c-0.541 0.8068-0.801 1.7699-0.739 2.7396z"/><path d="m236.09 68.228v-8.2524h-1.503v-1.2576h1.503v-0.9756c-0.028-0.4285 0.031-0.8582 0.171-1.264 0.14-0.4059 0.36-0.7798 0.646-1.1 0.307-0.291 0.671-0.5157 1.069-0.6602s0.821-0.2057 1.243-0.1798c0.377 7e-4 0.752 0.0507 1.116 0.1488l-0.087 1.3104c-0.29-0.0541-0.585-0.0806-0.88-0.0792-0.225-0.0142-0.45 0.0198-0.661 0.0997-0.21 0.0799-0.402 0.2038-0.561 0.3635-0.308 0.3707-0.462 0.8459-0.43 1.3272v1.0044h2.03v1.2576h-2.027v8.2524z"/></g><g fill="#454955"><path d="m10.32 92.228c-0.139-0.3524-0.2239-0.7238-0.252-1.1016-0.37791 0.4122-0.83821 0.7405-1.3511 0.9636-0.51287 0.223-1.0669 0.3359-1.6261 0.3312-0.92581 0.0373-1.8318-0.275-2.538-0.8748-0.31972-0.273-0.57458-0.6137-0.74604-0.9975-0.17146-0.3839-0.25521-0.8011-0.24516-1.2213-0.02165-0.4928 0.08032-0.9831 0.29662-1.4264 0.21629-0.4433 0.54005-0.8254 0.94178-1.1116 1.041-0.6616 2.2643-0.9779 3.4956-0.9036h1.74v-0.822c0.0143-0.2738-0.0276-0.5476-0.12316-0.8045-0.09556-0.257-0.24272-0.4916-0.43243-0.6895-0.22477-0.1977-0.48664-0.3486-0.77033-0.444-0.2837-0.0954-0.58355-0.1333-0.88207-0.1116-0.5731-0.0213-1.1372 0.1474-1.6044 0.48-0.19553 0.1271-0.35688 0.3002-0.46986 0.5042-0.11299 0.204-0.17416 0.4326-0.17814 0.6658h-1.8c0.01237-0.5487 0.20699-1.0777 0.5532-1.5036 0.39672-0.5068 0.91578-0.9045 1.5084-1.1556 0.65967-0.2881 1.373-0.4329 2.0928-0.4248 1.0238-0.0605 2.0335 0.2616 2.8332 0.9036 0.3454 0.3143 0.619 0.6992 0.8025 1.1287 0.1834 0.4294 0.2723 0.8933 0.2607 1.3601v4.8156c-0.0304 0.7805 0.0948 1.5592 0.3684 2.2908v0.1548zm-2.97-1.3632c0.56136 0 1.1125-0.1504 1.596-0.4356 0.47074-0.2567 0.85177-0.6511 1.092-1.1304v-2.1468h-1.398c-2.1912 0-3.2868 0.64-3.2868 1.92-0.01371 0.2482 0.02967 0.4963 0.12682 0.7251s0.24548 0.4323 0.43358 0.5949c0.40619 0.3255 0.91627 0.4934 1.4364 0.4728z"/><path d="m20.722 89.452c0.0091-0.2183-0.0362-0.4353-0.1317-0.6318-0.0955-0.1964-0.2383-0.3661-0.4155-0.4938-0.5838-0.352-1.2307-0.5868-1.9044-0.6912-0.7464-0.1403-1.4721-0.3741-2.16-0.696-0.4686-0.2176-0.8744-0.5503-1.1796-0.9672-0.2616-0.3945-0.3952-0.86-0.3828-1.3332-3e-4 -0.4223 0.0979-0.8389 0.2868-1.2166 0.189-0.3777 0.4635-0.706 0.8016-0.959 0.7923-0.6154 1.7769-0.9304 2.7792-0.8892 1.0386-0.0461 2.0597 0.2793 2.88 0.918 0.3534 0.2795 0.6373 0.6371 0.8292 1.0448 0.192 0.4077 0.2869 0.8543 0.2772 1.3048h-1.8c-0.0011-0.2447-0.0579-0.486-0.166-0.7055s-0.2647-0.4116-0.458-0.5617c-0.4372-0.361-0.9908-0.5508-1.5576-0.534-0.5424-0.032-1.08 0.1179-1.5276 0.426-0.1747 0.127-0.316 0.2944-0.4119 0.4879s-0.1436 0.4074-0.1389 0.6233c-0.0102 0.1938 0.0319 0.3868 0.1221 0.5587s0.225 0.3163 0.3903 0.4181c0.581 0.304 1.2056 0.5161 1.8516 0.6288 0.7493 0.1526 1.4777 0.3943 2.1696 0.72 0.4891 0.2235 0.9136 0.5674 1.2336 0.9996 0.2762 0.4235 0.4161 0.9214 0.4008 1.4268 0.011 0.4377-0.0854 0.8714-0.2808 1.2632-0.1953 0.3918-0.4838 0.7298-0.84 0.9844-0.8513 0.5931-1.8747 0.8884-2.9112 0.84-0.7648 0.0152-1.5236-0.1368-2.2236-0.4452-0.6087-0.267-1.1319-0.6967-1.512-1.242-0.356-0.5049-0.5468-1.1078-0.546-1.7256h1.788c6e-3 0.2763 0.0738 0.5477 0.1984 0.7944s0.3028 0.4624 0.5216 0.6312c0.5143 0.3739 1.1409 0.561 1.776 0.5304 0.5719 0.0282 1.1393-0.1147 1.6296-0.4104 0.189-0.1136 0.345-0.2748 0.4524-0.4674 0.1074-0.1927 0.1624-0.4101 0.1596-0.6306z"/><path d="m27.266 79.234v2.5332h1.9524v1.3824h-1.9524v6.4908c-0.025 0.335 0.0671 0.6684 0.2604 0.9432 0.1157 0.1152 0.2557 0.2032 0.4097 0.2575 0.154 0.0544 0.3182 0.0738 0.4807 0.0569 0.2868-0.0119 0.5718-0.0521 0.8508-0.12v1.44c-0.447 0.1249-0.9087 0.1895-1.3728 0.192-0.3363 0.0246-0.6738-0.0274-0.987-0.1521-0.3132-0.1248-0.5941-0.3189-0.8214-0.5679-0.4405-0.5927-0.6565-1.3223-0.6096-2.0592v-6.4812h-1.9044v-1.3824h1.9044v-2.5332z"/><path d="m33.096 83.033c0.3659-0.4679 0.8363-0.8437 1.3735-1.0971s1.1263-0.3774 1.7201-0.3621c2.2104 0 3.3256 1.2468 3.3456 3.7404v6.9132h-1.788v-6.9228c0.0438-0.6026-0.1414-1.1995-0.5184-1.6716-0.2113-0.1952-0.461-0.3441-0.7331-0.4373s-0.5607-0.1286-0.8473-0.1039c-0.5449-0.0106-1.0792 0.1516-1.5264 0.4632-0.4408 0.3113-0.7941 0.7307-1.026 1.218v7.4544h-1.788v-14.85h1.788z"/><path d="m43.896 81.767 0.048 1.1592c0.3808-0.4461 0.858-0.7997 1.3957-1.034 0.5376-0.2343 1.1216-0.3432 1.7075-0.3184 0.61-0.0599 1.2237 0.0692 1.7579 0.3697 0.5343 0.3005 0.9633 0.7579 1.2289 1.3103 0.3522-0.5064 0.8178-0.9234 1.3596-1.218 0.6081-0.3216 1.2888-0.4811 1.9764-0.4632 2.2944 0 3.4612 1.2148 3.5004 3.6444v7.0092h-1.7904v-6.906c0.0476-0.6046-0.1354-1.2049-0.5124-1.68-0.233-0.2062-0.5062-0.3621-0.8023-0.4577s-0.6088-0.1289-0.9185-0.0979c-0.6077-0.0192-1.1996 0.1956-1.6536 0.6-0.4482 0.417-0.721 0.9889-0.7632 1.5996v6.942h-1.8v-6.8532c0.0471-0.3061 0.0222-0.6189-0.0727-0.9137s-0.2571-0.5635-0.4737-0.7847c-0.2167-0.2213-0.482-0.389-0.7748-0.49-0.2927-0.1009-0.605-0.1323-0.912-0.0916-0.5084-0.0395-1.0162 0.0845-1.4493 0.3539-0.433 0.2694-0.7686 0.6701-0.9579 1.1437v7.638h-1.7856v-10.462z"/><path d="m66.025 92.228c-0.139-0.3523-0.2236-0.7238-0.2508-1.1016-0.3781 0.4124-0.8386 0.7408-1.3517 0.9638-0.5131 0.2231-1.0673 0.3358-1.6267 0.331-0.9258 0.0369-1.8316-0.2753-2.538-0.8748-0.3195-0.2731-0.5743-0.6139-0.7457-0.9977-0.1715-0.3838-0.2553-0.8009-0.2455-1.2211-0.0213-0.4932 0.0814-0.9839 0.2986-1.4272 0.2171-0.4434 0.5419-0.8252 0.9446-1.1108 1.0405-0.6617 2.2635-0.9779 3.4944-0.9036h1.7412v-0.822c0.0132-0.2742-0.0298-0.5481-0.1264-0.8051-0.0966-0.2569-0.2447-0.4913-0.4352-0.6889-0.2251-0.1976-0.4872-0.3484-0.771-0.4438-0.2839-0.0954-0.5839-0.1334-0.8826-0.1118-0.5731-0.0209-1.137 0.1478-1.6044 0.48-0.1956 0.1271-0.3569 0.3002-0.4699 0.5042s-0.1741 0.4326-0.1781 0.6658h-1.8c0.0132-0.5494 0.2096-1.0786 0.558-1.5036 0.3964-0.5071 0.9156-0.9048 1.5084-1.1556 0.6596-0.2884 1.3729-0.4332 2.0928-0.4248 1.0237-0.0601 2.0333 0.2619 2.8332 0.9036 0.3449 0.3147 0.6183 0.6997 0.8017 1.129s0.2726 0.893 0.2615 1.3598v4.8156c-0.0308 0.7804 0.0941 1.5591 0.3672 2.2908v0.1548zm-2.9688-1.3632c0.5613 0 1.1124-0.1504 1.596-0.4356 0.4707-0.257 0.8521-0.6513 1.0932-1.1304v-2.1468h-1.4028c-2.1912 0-3.2868 0.64-3.2868 1.92-0.0135 0.2482 0.03 0.4962 0.1272 0.725 0.0971 0.2287 0.2453 0.4323 0.4332 0.595 0.4071 0.3264 0.9186 0.4943 1.44 0.4728z"/></g><path d="m75.248 78.993c-0.0076-0.2701 0.0876-0.533 0.2664-0.7356 0.1014-0.1043 0.2244-0.1852 0.3604-0.237s0.2816-0.0733 0.4268-0.063c0.146-0.0101 0.2924 0.0115 0.4293 0.0633s0.261 0.1325 0.3639 0.2367c0.1811 0.2015 0.2781 0.4647 0.2712 0.7356 0.0047 0.1421-0.0191 0.2836-0.0702 0.4163-0.051 0.1327-0.1283 0.2537-0.2271 0.3559s-0.2172 0.1834-0.348 0.2389c-0.1309 0.0555-0.2716 0.0841-0.4137 0.0841-0.1422 0-0.2829-0.0286-0.4138-0.0841-0.1308-0.0555-0.2492-0.1367-0.348-0.2389s-0.176-0.2232-0.2271-0.3559-0.0749-0.2742-0.0701-0.4163zm1.9332 13.235h-1.788v-10.46h1.788z" fill="#858b9c"/><path d="m81.736 81.767 0.0576 1.314c0.3651-0.4816 0.8396-0.8695 1.3841-1.1316 0.5446-0.262 1.1438-0.3908 1.7479-0.3756 2.212 0 3.3276 1.2468 3.3468 3.7404v6.9132h-1.7892v-6.9228c0.0431-0.6023-0.1415-1.1988-0.5172-1.6716-0.2116-0.1951-0.4615-0.344-0.7338-0.4371-0.2723-0.0932-0.561-0.1287-0.8478-0.1041-0.5449-0.0104-1.0791 0.1517-1.5264 0.4632-0.4408 0.3113-0.7941 0.7307-1.026 1.218v7.4544h-1.7916v-10.46z" fill="#858b9c"/><g fill="#454955"><path d="m100.06 90.96c0.609 0.0102 1.201-0.1951 1.673-0.5796 0.226-0.1731 0.413-0.3914 0.549-0.6411 0.137-0.2496 0.219-0.525 0.243-0.8085h1.693c-0.039 0.6177-0.254 1.2114-0.619 1.7112-0.392 0.5514-0.916 0.9964-1.523 1.2948-0.624 0.3187-1.315 0.4833-2.016 0.48-0.6364 0.0283-1.2714-0.0848-1.859-0.3313-0.5877-0.2465-1.1134-0.6203-1.5392-1.0943-0.8915-1.098-1.3412-2.4891-1.2612-3.9012v-0.3c-0.0171-0.936 0.1743-1.864 0.5604-2.7168 0.3455-0.7589 0.9047-1.4007 1.6092-1.8468 0.7473-0.4508 1.6079-0.6786 2.4808-0.6564 1.073-0.0357 2.12 0.3413 2.924 1.0536 0.384 0.3462 0.692 0.7679 0.906 1.2386s0.329 0.9804 0.337 1.4974h-1.693c-0.031-0.6342-0.307-1.2318-0.768-1.668-0.46-0.4347-1.074-0.669-1.706-0.6516-0.4056-0.0198-0.8096 0.0592-1.1775 0.2302s-0.6888 0.4289-0.9349 0.7514c-0.5508 0.84-0.8121 1.837-0.744 2.8392v0.3396c-0.0625 0.9845 0.1993 1.9623 0.7452 2.784 0.2486 0.3215 0.5712 0.5782 0.9404 0.7481s0.7741 0.2479 1.1798 0.2275z"/><path d="m108.02 83.033c0.366-0.4684 0.837-0.8445 1.375-1.0979s1.128-0.3772 1.722-0.3613c2.211 0 3.326 1.2468 3.346 3.7404v6.9132h-1.793v-6.9228c0.044-0.6024-0.14-1.1993-0.517-1.6716-0.211-0.195-0.461-0.3438-0.733-0.437s-0.561-0.1287-0.847-0.1042c-0.546-0.0106-1.08 0.1516-1.528 0.4632-0.44 0.3113-0.793 0.7308-1.025 1.218v7.4544h-1.789v-14.85h1.789z"/><path d="m117.15 78.993c-7e-3 -0.2701 0.088-0.533 0.267-0.7356 0.101-0.1043 0.224-0.1852 0.36-0.237s0.282-0.0733 0.427-0.063c0.146-0.0101 0.292 0.0115 0.429 0.0633s0.261 0.1325 0.364 0.2367c0.181 0.2015 0.278 0.4647 0.271 0.7356 5e-3 0.1421-0.019 0.2836-0.07 0.4163s-0.128 0.2537-0.227 0.3559-0.217 0.1834-0.348 0.2389-0.272 0.0841-0.414 0.0841-0.283-0.0286-0.413-0.0841c-0.131-0.0555-0.25-0.1367-0.349-0.2389-0.098-0.1022-0.176-0.2232-0.227-0.3559s-0.075-0.2742-0.07-0.4163zm1.933 13.235h-1.788v-10.46h1.788z"/><path d="m123.89 92.228h-1.788v-14.85h1.788z"/><path d="m126.32 86.91c-0.069-1.3825 0.333-2.7474 1.14-3.8724 0.349-0.4387 0.789-0.7966 1.29-1.0489 0.501-0.2524 1.05-0.3933 1.611-0.413 0.56-0.0197 1.118 0.0822 1.636 0.2987 0.517 0.2165 0.981 0.5425 1.361 0.9556v-5.4528h1.788v14.85h-1.643l-0.088-1.122c-0.36 0.4374-0.818 0.7846-1.337 1.0138-0.518 0.2291-1.083 0.334-1.65 0.3062-0.577 0.0099-1.149-0.1204-1.665-0.3797-0.516-0.2594-0.962-0.6401-1.298-1.1095-0.807-1.1304-1.21-2.4987-1.145-3.8856zm1.788 0.2028c-0.057 0.9828 0.2 1.9581 0.734 2.7852 0.228 0.3232 0.533 0.5843 0.888 0.7597 0.354 0.1754 0.747 0.2595 1.142 0.2447 0.52 0.0216 1.034-0.1123 1.476-0.3844 0.443-0.2721 0.794-0.6702 1.01-1.1432v-4.8c-0.223-0.4593-0.575-0.8436-1.013-1.1061-0.438-0.2626-0.943-0.3919-1.453-0.3723-0.4-0.0161-0.796 0.0682-1.155 0.2454-0.358 0.1772-0.666 0.4415-0.895 0.7686-0.549 0.9011-0.805 1.9498-0.734 3.0024z"/><path d="m142.97 83.372c-0.29-0.0472-0.585-0.0701-0.879-0.0684-0.507-0.0406-1.013 0.0833-1.443 0.3533-0.431 0.27-0.762 0.6718-0.946 1.1455v7.4256h-1.788v-10.46h1.74l0.03 1.2084c0.249-0.4376 0.613-0.7991 1.052-1.0459 0.44-0.2469 0.938-0.3698 1.441-0.3557 0.271-0.0144 0.542 0.0315 0.793 0.1344z"/><path d="m148.77 92.421c-0.642 0.0238-1.283-0.0883-1.879-0.329s-1.135-0.6046-1.581-1.0678c-0.923-1.0193-1.404-2.3634-1.336-3.7368v-0.3288c-0.015-0.9601 0.19-1.9108 0.6-2.7792 0.366-0.7799 0.942-1.4427 1.663-1.914 0.687-0.4536 1.492-0.694 2.315-0.6912 0.596-0.0326 1.192 0.0715 1.741 0.3042 0.55 0.2327 1.039 0.588 1.431 1.0386 0.821 1.1083 1.222 2.4721 1.131 3.8484v0.744h-7.087c-0.017 0.9162 0.306 1.8063 0.905 2.4996 0.275 0.3094 0.614 0.5549 0.994 0.7192 0.38 0.1644 0.792 0.2437 1.205 0.2324 0.56 0.0175 1.114-0.116 1.605-0.3864 0.446-0.2637 0.836-0.6113 1.149-1.0236l1.094 0.8496c-0.42 0.6569-1.007 1.1903-1.701 1.5455-0.694 0.3551-1.47 0.5191-2.249 0.4753zm-0.223-9.378c-0.341-0.0065-0.68 0.0606-0.994 0.1966-0.313 0.1361-0.594 0.3379-0.823 0.5918-0.531 0.6204-0.849 1.3946-0.908 2.2092h5.239v-0.1356c0-0.7666-0.259-1.5107-0.734-2.112-0.222-0.2501-0.497-0.4475-0.805-0.5777s-0.641-0.1899-0.975-0.1747z"/><path d="m156.61 81.767 0.058 1.314c0.365-0.4816 0.839-0.8695 1.384-1.1316 0.544-0.262 1.143-0.3908 1.748-0.3756 2.21 0 3.325 1.2468 3.345 3.7404v6.9132h-1.789v-6.9228c0.044-0.6024-0.141-1.1993-0.517-1.6716-0.212-0.195-0.461-0.3438-0.733-0.437-0.273-0.0932-0.561-0.1287-0.848-0.1042-0.545-0.0106-1.08 0.1516-1.527 0.4632-0.44 0.3117-0.793 0.731-1.025 1.218v7.4544h-1.79v-10.46z"/></g><path d="m170.76 78.993c-7e-3 -0.27 0.088-0.5327 0.267-0.7356 0.101-0.1043 0.224-0.1852 0.361-0.237 0.136-0.0518 0.282-0.0733 0.427-0.063 0.146-0.01 0.292 0.0116 0.429 0.0634 0.136 0.0517 0.26 0.1325 0.363 0.2366 0.182 0.2012 0.279 0.4647 0.271 0.7356 7e-3 0.2662-0.09 0.5247-0.271 0.72-0.104 0.1014-0.229 0.1795-0.365 0.2294-0.137 0.0498-0.282 0.0702-0.427 0.0598-0.145 0.0107-0.29-0.0096-0.426-0.0595-0.135-0.0499-0.259-0.1282-0.362-0.2297-0.178-0.1971-0.273-0.4547-0.267-0.72zm1.935 13.235h-1.79v-10.46h1.79z" fill="#858b9c"/><path d="m177.25 81.767 0.058 1.314c0.365-0.4816 0.839-0.8695 1.384-1.1316 0.544-0.262 1.143-0.3908 1.748-0.3756 2.211 0 3.326 1.2468 3.345 3.7404v6.9132h-1.788v-6.9228c0.044-0.6026-0.141-1.1995-0.518-1.6716-0.212-0.1952-0.461-0.3441-0.733-0.4373-0.273-0.0932-0.561-0.1286-0.848-0.1039-0.545-0.0106-1.079 0.1516-1.526 0.4632-0.441 0.3113-0.794 0.7307-1.026 1.218v7.4544h-1.788v-10.46z" fill="#858b9c"/><g fill="#454955"><path d="m197.84 92.228c-0.139-0.3523-0.224-0.7238-0.251-1.1016-0.378 0.4124-0.839 0.7408-1.352 0.9638-0.513 0.2231-1.067 0.3358-1.627 0.331-0.925 0.0371-1.831-0.2752-2.536-0.8748-0.32-0.2729-0.575-0.6136-0.747-0.9974s-0.256-0.8011-0.246-1.2214c-0.021-0.4932 0.082-0.9838 0.299-1.4271s0.542-0.8252 0.944-1.1109c1.041-0.6616 2.265-0.9778 3.496-0.9036h1.74v-0.822c0.014-0.2742-0.029-0.5482-0.126-0.8052s-0.245-0.4914-0.436-0.6888c-0.224-0.1976-0.486-0.3486-0.77-0.4439-0.284-0.0954-0.583-0.1334-0.882-0.1117-0.573-0.0211-1.138 0.1476-1.606 0.48-0.195 0.1271-0.356 0.3002-0.469 0.5042s-0.175 0.4326-0.179 0.6658h-1.8c0.011-0.5524 0.207-1.0853 0.556-1.5132 0.396-0.5071 0.916-0.9048 1.508-1.1556 0.66-0.2884 1.373-0.4332 2.093-0.4248 1.024-0.0603 2.034 0.2617 2.833 0.9036 0.346 0.3145 0.619 0.6994 0.803 1.1288 0.183 0.4294 0.272 0.8932 0.261 1.36v4.8156c-0.031 0.7804 0.094 1.5591 0.367 2.2908v0.1548zm-2.968-1.3632c0.561-2e-4 1.112-0.1506 1.595-0.4356 0.471-0.257 0.852-0.6513 1.093-1.1304v-2.1468h-1.403c-2.191 0-3.287 0.64-3.287 1.92-0.013 0.2482 0.03 0.4962 0.128 0.725 0.097 0.2288 0.245 0.4323 0.433 0.595 0.407 0.3266 0.919 0.4946 1.441 0.4728z"/><path d="m203.03 92.228v-9.078h-1.654v-1.3824h1.654v-1.0728c-0.03-0.4716 0.033-0.9445 0.188-1.3912 0.154-0.4466 0.396-0.8581 0.711-1.2104 0.338-0.319 0.738-0.5651 1.176-0.723 0.437-0.1579 0.902-0.2243 1.367-0.195 0.414 1e-4 0.827 0.055 1.227 0.1632l-0.097 1.44c-0.319-0.059-0.642-0.088-0.966-0.0864-0.247-0.0156-0.495 0.0218-0.727 0.1095s-0.442 0.2239-0.617 0.3993c-0.342 0.4064-0.514 0.9291-0.48 1.4592v1.1064h2.233v1.3824h-2.233v9.078z"/><path d="m214.08 83.372c-0.29-0.0472-0.585-0.0701-0.879-0.0684-0.507-0.041-1.013 0.0828-1.443 0.3529s-0.762 0.672-0.945 1.1459v7.4256h-1.788v-10.46h1.74l0.029 1.2084c0.249-0.4375 0.613-0.7991 1.052-1.0459 0.44-0.2469 0.938-0.3698 1.441-0.3557 0.271-0.0145 0.542 0.0314 0.793 0.1344z"/><path d="m215.73 78.993c-7e-3 -0.2701 0.088-0.533 0.267-0.7356 0.101-0.1044 0.224-0.1854 0.36-0.2372s0.282-0.0733 0.427-0.0628c0.146-0.01 0.292 0.0116 0.429 0.0633 0.137 0.0518 0.261 0.1325 0.364 0.2367 0.181 0.2016 0.277 0.4649 0.27 0.7356 0 0.2807-0.112 0.5499-0.31 0.7484s-0.468 0.31-0.748 0.31c-0.281 0-0.55-0.1115-0.749-0.31-0.198-0.1985-0.31-0.4677-0.31-0.7484zm1.933 13.235h-1.786v-10.46h1.788z"/><path d="m224.73 90.96c0.608 0.0102 1.201-0.1951 1.673-0.5796 0.225-0.1731 0.412-0.3914 0.549-0.6411 0.136-0.2496 0.219-0.525 0.243-0.8085h1.692c-0.039 0.6176-0.254 1.2113-0.618 1.7112-0.393 0.5514-0.916 0.9964-1.523 1.2948-0.624 0.3187-1.316 0.4833-2.016 0.48-0.637 0.0283-1.272-0.0848-1.86-0.3313-0.587-0.2465-1.113-0.6203-1.539-1.0943-0.891-1.098-1.341-2.4891-1.261-3.9012v-0.3c-0.018-0.936 0.174-1.8642 0.561-2.7168 0.345-0.7589 0.904-1.4007 1.609-1.8468 0.747-0.4508 1.608-0.6786 2.48-0.6564 1.074-0.0357 2.12 0.3413 2.925 1.0536 0.383 0.3464 0.692 0.768 0.905 1.2387 0.214 0.4707 0.328 0.9804 0.337 1.4973h-1.692c-0.032-0.6342-0.307-1.2318-0.768-1.668-0.46-0.4351-1.074-0.6699-1.707-0.6528-0.405-0.0197-0.809 0.0594-1.177 0.2303-0.369 0.171-0.69 0.4288-0.936 0.7513-0.552 0.8387-0.815 1.8349-0.749 2.8368v0.3396c-0.062 0.9845 0.199 1.9623 0.745 2.784 0.249 0.3231 0.573 0.5809 0.943 0.7515 0.37 0.1705 0.776 0.2487 1.184 0.2277z"/><path d="m237.35 92.228c-0.139-0.3524-0.224-0.7238-0.252-1.1016-0.378 0.4124-0.838 0.7407-1.351 0.9638s-1.067 0.3358-1.626 0.331c-0.926 0.0369-1.832-0.2753-2.538-0.8748-0.32-0.2731-0.574-0.6139-0.746-0.9977-0.171-0.3838-0.255-0.8009-0.245-1.2211-0.021-0.4932 0.081-0.9839 0.298-1.4272 0.217-0.4434 0.542-0.8252 0.945-1.1108 1.041-0.6617 2.263-0.9779 3.494-0.9036h1.742v-0.822c0.013-0.2742-0.03-0.5481-0.127-0.8051-0.096-0.2569-0.245-0.4913-0.435-0.6889-0.225-0.1976-0.487-0.3484-0.771-0.4438s-0.584-0.1334-0.883-0.1118c-0.573-0.0209-1.137 0.1478-1.604 0.48-0.196 0.1271-0.357 0.3002-0.47 0.5042s-0.174 0.4326-0.178 0.6658h-1.8c0.013-0.5491 0.208-1.0783 0.556-1.5036 0.396-0.5071 0.915-0.9048 1.508-1.1556 0.66-0.2884 1.373-0.4332 2.093-0.4248 1.023-0.0601 2.033 0.2619 2.833 0.9036 0.345 0.3147 0.618 0.6997 0.802 1.129 0.183 0.4293 0.272 0.893 0.261 1.3598v4.8156c-0.031 0.7804 0.094 1.5591 0.367 2.2908v0.1548zm-2.969-1.3632c0.562 0 1.113-0.1504 1.596-0.4356 0.471-0.257 0.852-0.6513 1.094-1.1304v-2.1468h-1.403c-2.191 0-3.287 0.64-3.287 1.92-0.014 0.2482 0.03 0.4962 0.127 0.725 0.097 0.2287 0.245 0.4323 0.433 0.595 0.407 0.3264 0.919 0.4943 1.44 0.4728z"/></g></svg>
